<svg width="24" height="24" viewBox="0 0 24 24" fill="none" xmlns="http://www.w3.org/2000/svg">
<path fill-rule="evenodd" clip-rule="evenodd" d="M10.5616 2C9.18496 2 7.98501 2.93689 7.65113 4.27239L7.21923 6.00001L3.94561 6.00001C3.52154 5.99992 3.10941 5.99984 2.76949 6.04554C2.38629 6.09706 1.94902 6.22259 1.5858 6.5858C1.22259 6.94902 1.09706 7.38629 1.04554 7.7695C0.999843 8.10941 0.999924 8.52154 1.00001 8.94561L1.00001 9.55564C0.999943 9.876 0.999878 10.196 1.03143 10.4672C1.06744 10.7767 1.15341 11.1246 1.39543 11.4498C1.57289 11.6884 1.78609 11.85 2.00001 11.9679L2.00001 19.0544C1.99992 19.4785 1.99984 19.8906 2.04554 20.2305C2.09706 20.6137 2.22259 21.051 2.5858 21.4142C2.94902 21.7774 3.38629 21.903 3.76949 21.9545C4.10941 22.0002 4.52153 22.0001 4.9456 22H19.0544C19.4785 22.0001 19.8906 22.0002 20.2305 21.9545C20.6137 21.903 21.051 21.7774 21.4142 21.4142C21.7774 21.051 21.903 20.6137 21.9545 20.2305C22.0002 19.8906 22.0001 19.4785 22 19.0544L22 11.9679C22.2139 11.85 22.4271 11.6884 22.6046 11.4498C22.8466 11.1246 22.9326 10.7767 22.9686 10.4672C23.0001 10.196 23.0001 9.87599 23 9.55562V8.94562C23.0001 8.52155 23.0002 8.10941 22.9545 7.7695C22.903 7.38629 22.7774 6.94902 22.4142 6.5858C22.051 6.22259 21.6137 6.09706 21.2305 6.04554C20.8906 5.99984 20.4785 5.99992 20.0544 6.00001L16.7808 6.00001L16.3489 4.27239C16.015 2.93689 14.8151 2 13.4385 2H10.5616ZM9.59142 4.75746C9.70271 4.3123 10.1027 4 10.5616 4H13.4385C13.8973 4 14.2973 4.3123 14.4086 4.75746L14.7192 6H9.28079L9.59142 4.75746ZM20 12.644V19C20 19.4997 19.9979 19.7738 19.9723 19.964L19.9713 19.9713L19.964 19.9723C19.7738 19.9979 19.4997 20 19 20H5.00001C4.50034 20 4.22618 19.9979 4.03599 19.9723L4.02871 19.9713L4.02771 19.964C4.00214 19.7738 4.00001 19.4997 4.00001 19V12.644L10.6595 14.642C11.1348 14.7852 11.5557 14.912 12 14.912C12.4443 14.912 12.8652 14.7852 13.3405 14.642L20 12.644ZM3.02871 8.02871L3.02771 8.03599C3.00214 8.22618 3.00001 8.50034 3.00001 9.00001V9.51195C3.00001 9.89392 3.00159 10.0947 3.01803 10.236L3.01874 10.242L3.0243 10.2445C3.15495 10.3008 3.34681 10.36 3.71267 10.4698L11.138 12.6974C11.7638 12.8851 11.887 12.912 12 12.912C12.113 12.912 12.2362 12.8851 12.8621 12.6974L20.2874 10.4698C20.6532 10.36 20.8451 10.3008 20.9757 10.2445L20.9813 10.242L20.982 10.236C20.9984 10.0947 21 9.89392 21 9.51195V9.00001C21 8.50034 20.9979 8.22618 20.9723 8.03599L20.9713 8.02871L20.964 8.02771C20.7738 8.00214 20.4997 8.00001 20 8.00001H4.00001C3.50034 8.00001 3.22618 8.00214 3.03599 8.02771L3.02871 8.02871Z" fill="#2D15FF"/>
</svg>
