<svg width="24" height="24" viewBox="0 0 24 24" fill="none" xmlns="http://www.w3.org/2000/svg">
<path fill-rule="evenodd" clip-rule="evenodd" d="M7.93357 1C7.95543 1 7.97738 1 7.9994 1L16.0652 1C16.9517 0.999953 17.7155 0.99991 18.3272 1.08215C18.9827 1.17028 19.6111 1.36902 20.1207 1.87868C20.6304 2.38835 20.8291 3.0167 20.9173 3.67221C20.9995 4.28388 20.9995 5.0477 20.9994 5.9342V18.0658C20.9995 18.9523 20.9995 19.7161 20.9173 20.3278C20.8291 20.9833 20.6304 21.6117 20.1207 22.1213C19.6111 22.631 18.9827 22.8297 18.3272 22.9179C17.7155 23.0001 16.9517 23.0001 16.0652 23H7.93359C7.04709 23.0001 6.28327 23.0001 5.6716 22.9179C5.01609 22.8297 4.38774 22.631 3.87807 22.1213C3.36841 21.6117 3.16967 20.9833 3.08154 20.3278C2.9993 19.7161 2.99934 18.9523 2.99939 18.0658L2.99939 6.00001C2.99939 5.97799 2.99939 5.95604 2.99939 5.93418C2.99934 5.04769 2.9993 4.28387 3.08154 3.67221C3.16967 3.0167 3.36841 2.38835 3.87807 1.87868C4.38774 1.36902 5.01609 1.17028 5.6716 1.08215C6.28326 0.99991 7.04708 0.999953 7.93357 1ZM5.9381 3.06431C5.50436 3.12263 5.36841 3.21677 5.29229 3.2929C5.21616 3.36902 5.12202 3.50497 5.0637 3.93871C5.00152 4.40122 4.9994 5.02893 4.9994 6.00001V18C4.9994 18.9711 5.00152 19.5988 5.0637 20.0613C5.12202 20.495 5.21616 20.631 5.29229 20.7071C5.36841 20.7832 5.50436 20.8774 5.9381 20.9357C6.40061 20.9979 7.02832 21 7.9994 21H15.9994C16.9705 21 17.5982 20.9979 18.0607 20.9357C18.4944 20.8774 18.6304 20.7832 18.7065 20.7071C18.7826 20.631 18.8768 20.495 18.9351 20.0613C18.9973 19.5988 18.9994 18.9711 18.9994 18V6.00001C18.9994 5.02893 18.9973 4.40122 18.9351 3.93871C18.8768 3.50497 18.7826 3.36902 18.7065 3.2929C18.6304 3.21677 18.4944 3.12263 18.0607 3.06431C17.5982 3.00213 16.9705 3.00001 15.9994 3.00001H7.9994C7.02832 3.00001 6.40061 3.00213 5.9381 3.06431Z" fill="#453CFF"/>
<path fill-rule="evenodd" clip-rule="evenodd" d="M11.9994 9.00001H7.9994V7.00001H11.9994V9.00001Z" fill="#453CFF"/>
<path fill-rule="evenodd" clip-rule="evenodd" d="M15.9994 13H7.9994V11H15.9994V13Z" fill="#453CFF"/>
<path fill-rule="evenodd" clip-rule="evenodd" d="M15.9994 17H7.9994V15H15.9994V17Z" fill="#453CFF"/>
</svg>
