<svg width="24" height="24" viewBox="0 0 24 24" fill="none" xmlns="http://www.w3.org/2000/svg">
<path d="M14.7553 12.3313L10.9604 16.5479L8.7057 14.2932L7.29148 15.7074L10.2915 18.7074C10.4855 18.9014 10.7506 19.0071 11.0249 18.9999C11.2991 18.9927 11.5584 18.8731 11.7419 18.6692L16.2419 13.6692L14.7553 12.3313Z" fill="#453CFF"/>
<path fill-rule="evenodd" clip-rule="evenodd" d="M12.3131 1.00017C13.0635 0.998904 13.7301 0.99778 14.3324 1.2748C14.9347 1.55183 15.3677 2.05866 15.8551 2.62923L15.9553 2.74638L19.8758 7.32013C20.2725 7.78171 20.6243 8.19101 20.8124 8.69935C21.0004 9.2077 20.9997 9.74742 20.9988 10.3561L20.9987 18.0662C20.9988 18.9526 20.9988 19.7165 20.9166 20.3281C20.8285 20.9837 20.6297 21.612 20.1201 22.1217C19.6104 22.6313 18.982 22.8301 18.3265 22.9182C17.7149 23.0004 16.951 23.0004 16.0645 23.0003H7.93292C7.04642 23.0004 6.2826 23.0004 5.67093 22.9182C5.01542 22.8301 4.38707 22.6313 3.8774 22.1217C3.36774 21.612 3.169 20.9837 3.08086 20.3281C2.99863 19.7165 2.99867 18.9527 2.99872 18.0662V5.93451C2.99867 5.04802 2.99863 4.28421 3.08086 3.67255C3.169 3.01703 3.36774 2.38868 3.8774 1.87902C4.38707 1.36936 5.01542 1.17061 5.67093 1.08248C6.28259 1.00025 7.04641 1.00029 7.93289 1.00034L12.159 1.00034L12.3131 1.00017ZM7.99872 3.00034H11.9987L11.9987 7.55465C11.9986 7.97871 11.9986 8.39086 12.0443 8.73076C12.0958 9.11397 12.2213 9.55124 12.5845 9.91446C12.9477 10.2777 13.385 10.4032 13.7682 10.4547C14.1081 10.5004 14.5202 10.5003 14.9443 10.5003L18.9987 10.5002V18.0003C18.9987 18.9714 18.9966 19.5991 18.9344 20.0616C18.8761 20.4954 18.782 20.6313 18.7058 20.7074C18.6297 20.7836 18.4938 20.8777 18.06 20.936C17.5975 20.9982 16.9698 21.0003 15.9987 21.0003H7.99872C7.02765 21.0003 6.39993 20.9982 5.93743 20.936C5.50369 20.8777 5.36774 20.7836 5.29162 20.7075C5.21549 20.6313 5.12134 20.4954 5.06303 20.0616C5.00085 19.5991 4.99872 18.9714 4.99872 18.0003V6.00034C4.99872 5.02926 5.00085 4.40155 5.06303 3.93905C5.12134 3.50531 5.21549 3.36936 5.29162 3.29323C5.36774 3.21711 5.50369 3.12296 5.93743 3.06465C6.39993 3.00247 7.02765 3.00034 7.99872 3.00034ZM14.4368 4.04797L18.253 8.50025H14.9987C14.4991 8.50025 14.2249 8.49812 14.0347 8.47255L14.0274 8.47155L14.0264 8.46427C14.0009 8.27408 13.9987 7.99992 13.9987 7.50025V3.54568C14.1122 3.6719 14.2543 3.83511 14.4368 4.04797Z" fill="#453CFF"/>
</svg>
