<svg width="24" height="24" viewBox="0 0 24 24" fill="none" xmlns="http://www.w3.org/2000/svg">
<path d="M8.00147 12.0002V14.0002H16.0015V12.0002H8.00147Z" fill="#453CFF"/>
<path d="M8.00147 17.0002V15.0002H16.0015V17.0002H8.00147Z" fill="#453CFF"/>
<path d="M8.00147 20.0002H14.0015V18.0002H8.00147V20.0002Z" fill="#453CFF"/>
<path fill-rule="evenodd" clip-rule="evenodd" d="M12.3159 1.00017C13.0663 0.998904 13.7329 0.99778 14.3352 1.2748C14.9375 1.55183 15.3704 2.05866 15.8578 2.62923L15.958 2.74638L19.8785 7.32013C20.2753 7.78171 20.6271 8.19101 20.8151 8.69935C21.0032 9.2077 21.0024 9.74742 21.0016 10.3561L21.0015 18.0662C21.0015 18.9526 21.0016 19.7165 20.9193 20.3281C20.8312 20.9837 20.6325 21.612 20.1228 22.1217C19.6131 22.6313 18.9848 22.8301 18.3293 22.9182C17.7176 23.0004 16.9538 23.0004 16.0673 23.0003H7.93567C7.04917 23.0004 6.28535 23.0004 5.67368 22.9182C5.01816 22.8301 4.38981 22.6313 3.88015 22.1217C3.37049 21.612 3.17174 20.9837 3.08361 20.3281C3.00137 19.7165 3.00142 18.9527 3.00147 18.0662V5.93451C3.00142 5.04802 3.00137 4.28421 3.08361 3.67255C3.17174 3.01703 3.37049 2.38868 3.88015 1.87902C4.38981 1.36936 5.01816 1.17061 5.67368 1.08248C6.28534 1.00025 7.04915 1.00029 7.93564 1.00034L12.1617 1.00034L12.3159 1.00017ZM8.00147 3.00034H12.0015L12.0015 7.55465C12.0014 7.97871 12.0013 8.39086 12.047 8.73076C12.0985 9.11397 12.2241 9.55124 12.5873 9.91446C12.9505 10.2777 13.3878 10.4032 13.771 10.4547C14.1109 10.5004 14.523 10.5003 14.947 10.5003L19.0015 10.5002V18.0003C19.0015 18.9714 18.9994 19.5991 18.9372 20.0616C18.8789 20.4954 18.7847 20.6313 18.7086 20.7074C18.6325 20.7836 18.4965 20.8777 18.0628 20.936C17.6003 20.9982 16.9726 21.0003 16.0015 21.0003H8.00147C7.03039 21.0003 6.40268 20.9982 5.94017 20.936C5.50644 20.8777 5.37049 20.7836 5.29436 20.7075C5.21824 20.6313 5.12409 20.4954 5.06578 20.0616C5.00359 19.5991 5.00147 18.9714 5.00147 18.0003V6.00034C5.00147 5.02926 5.00359 4.40155 5.06578 3.93905C5.12409 3.50531 5.21824 3.36936 5.29436 3.29323C5.37049 3.21711 5.50644 3.12296 5.94017 3.06465C6.40268 3.00247 7.03039 3.00034 8.00147 3.00034ZM14.4395 4.04797L18.2557 8.50025H15.0015C14.5018 8.50025 14.2277 8.49812 14.0375 8.47255L14.0302 8.47155L14.0292 8.46427C14.0036 8.27408 14.0015 7.99992 14.0015 7.50025V3.54568C14.1149 3.6719 14.2571 3.83511 14.4395 4.04797Z" fill="#453CFF"/>
</svg>
