<svg width="24" height="24" viewBox="0 0 24 24" fill="none" xmlns="http://www.w3.org/2000/svg">
<path fill-rule="evenodd" clip-rule="evenodd" d="M11.5906 3.40144C11.3424 3.50976 11.0344 3.67963 10.5432 3.95255L5.54309 6.73034C5.02418 7.01862 4.69928 7.20043 4.46437 7.36346C4.2478 7.51375 4.17727 7.60236 4.13813 7.66887C4.099 7.73539 4.05579 7.84007 4.02958 8.10238C4.00115 8.3869 4 8.75921 4 9.35282V14.6456C4 15.2392 4.00115 15.6115 4.02958 15.896C4.05579 16.1583 4.099 16.263 4.13813 16.3295C4.17727 16.396 4.2478 16.4846 4.46436 16.6349C4.69927 16.7979 5.02418 16.9798 5.54309 17.268L10.5432 20.0458C11.0344 20.3188 11.3424 20.4886 11.5906 20.5969C11.8192 20.6967 11.9263 20.7113 12.0001 20.7113C12.0739 20.7113 12.181 20.6967 12.4096 20.5969C12.6578 20.4886 12.9658 20.3187 13.457 20.0458L18.4569 17.2681C18.9758 16.9798 19.3007 16.798 19.5356 16.6349C19.7522 16.4846 19.8227 16.396 19.8619 16.3295C19.901 16.263 19.9442 16.1583 19.9704 15.896C19.9989 15.6115 20 15.2392 20 14.6456V9.35279C20 8.7592 19.9989 8.38688 19.9704 8.10236C19.9442 7.84006 19.901 7.73538 19.8619 7.66887C19.8227 7.60236 19.7522 7.51375 19.5356 7.36345C19.3007 7.20042 18.9758 7.01861 18.4569 6.73033L13.457 3.95256C12.9658 3.67964 12.6578 3.50977 12.4096 3.40144C12.181 3.30166 12.0739 3.28711 12.0001 3.28711C11.9263 3.28711 11.8192 3.30166 11.5906 3.40144ZM10.7905 1.56842C11.1662 1.40444 11.5556 1.28711 12.0001 1.28711C12.4446 1.28711 12.834 1.40445 13.2097 1.56843C13.5562 1.71966 13.9482 1.93747 14.3912 2.18364L19.4672 5.00365C19.9355 5.26381 20.3492 5.49359 20.6759 5.72037C21.0301 5.96614 21.3485 6.25162 21.5856 6.65461C21.8227 7.05761 21.9177 7.4746 21.9605 7.90352C22.0001 8.2993 22 8.7725 22 9.30826V14.6901C22 15.2259 22.0001 15.6991 21.9605 16.0949C21.9177 16.5238 21.8227 16.9408 21.5856 17.3438C21.3485 17.7468 21.0301 18.0322 20.6759 18.278C20.3492 18.5048 19.9355 18.7346 19.4671 18.9948L14.3912 21.8147C13.9482 22.0609 13.5562 22.2787 13.2097 22.43C12.834 22.5939 12.4446 22.7113 12.0001 22.7113C11.5556 22.7113 11.1663 22.5939 10.7905 22.43C10.444 22.2787 10.052 22.0609 9.60896 21.8148L4.53288 18.9947C4.06451 18.7346 3.65085 18.5048 3.32408 18.278C2.96994 18.0322 2.65152 17.7468 2.41439 17.3438C2.17727 16.9408 2.08235 16.5238 2.03949 16.0948C1.99995 15.6991 1.99997 15.2259 2 14.6901V9.30829C1.99997 8.77252 1.99995 8.29932 2.03949 7.90353C2.08235 7.47461 2.17727 7.05761 2.41439 6.65462C2.65152 6.25162 2.96994 5.96613 3.32408 5.72037C3.65085 5.49359 4.06452 5.26381 4.53289 5.00364C4.54582 4.99646 4.55879 4.98925 4.57181 4.98202L9.60896 2.18363C10.052 1.93746 10.444 1.71965 10.7905 1.56842ZM16.7071 10.2063L12.4142 14.4992C11.6332 15.2802 10.3668 15.2802 9.58579 14.4992L7.7929 12.7063L9.20711 11.2921L11 13.085L15.2929 8.79209L16.7071 10.2063Z" fill="#453CFF"/>
</svg>
