<svg width="80" height="80" viewBox="0 0 80 80" fill="none" xmlns="http://www.w3.org/2000/svg">
<path d="M66.6668 70C66.6668 65.3481 66.6668 63.0222 66.0927 61.1295C64.8 56.8682 61.4653 53.5335 57.204 52.2408C55.3113 51.6667 52.9854 51.6667 48.3335 51.6667H31.6668C27.015 51.6667 24.689 51.6667 22.7964 52.2408C18.535 53.5335 15.2003 56.8682 13.9076 61.1295C13.3335 63.0222 13.3335 65.3481 13.3335 70M55.0002 25C55.0002 33.2843 48.2844 40 40.0002 40C31.7159 40 25.0002 33.2843 25.0002 25C25.0002 16.7157 31.7159 10 40.0002 10C48.2844 10 55.0002 16.7157 55.0002 25Z" stroke="#4B4A57" stroke-width="4" stroke-linecap="round" stroke-linejoin="round"/>
</svg>
