<?xml version="1.0" encoding="utf-8"?>
<!-- Generator: Adobe Illustrator 16.0.0, SVG Export Plug-In . SVG Version: 6.00 Build 0)  -->
<!DOCTYPE svg PUBLIC "-//W3C//DTD SVG 1.1//EN" "http://www.w3.org/Graphics/SVG/1.1/DTD/svg11.dtd">
<svg version="1.1" id="Layer_1" xmlns="http://www.w3.org/2000/svg" xmlns:xlink="http://www.w3.org/1999/xlink" x="0px" y="0px"
	 width="323.584px" height="52px" viewBox="0 0 323.584 52" enable-background="new 0 0 323.584 52" xml:space="preserve">
<g>
	<g>
		<path fill="#1502CD" d="M6.624,24.051c-1.489-0.832-2.671-1.959-3.545-3.385c-0.877-1.426-1.312-2.98-1.312-4.662
			c0-1.686,0.435-3.232,1.312-4.646C3.953,9.944,5.129,8.82,6.607,7.99c1.479-0.832,3.092-1.246,4.841-1.246
			c1.878,0,3.577,0.447,5.101,1.342c1.52,0.896,2.734,2.176,3.641,3.838l-4.371,1.717c-0.517-0.885-1.155-1.549-1.908-1.992
			c-0.757-0.441-1.578-0.664-2.462-0.664c-1.403,0-2.563,0.476-3.481,1.425c-0.917,0.95-1.375,2.149-1.375,3.595
			c0,1.447,0.463,2.645,1.392,3.592c0.928,0.951,2.093,1.425,3.497,1.425c1.941,0,3.441-0.862,4.5-2.588l4.111,1.617
			c-1.705,3.497-4.576,5.245-8.611,5.245C9.732,25.295,8.113,24.881,6.624,24.051z"/>
		<path fill="#1502CD" d="M32.784,11.682c-0.928,0.227-1.78,0.76-2.558,1.603c-0.777,0.841-1.165,2.071-1.165,3.69v7.869h-4.824
			V7.033h4.824v2.365c0.798-1.058,1.774-1.775,2.931-2.151c1.153-0.38,2.205-0.556,3.156-0.537v4.729
			C34.5,11.373,33.711,11.453,32.784,11.682z"/>
		<path fill="#1502CD" d="M42.709,24.42c-1.48-0.58-2.747-1.568-3.806-2.959c-1.058-1.393-1.585-3.212-1.585-5.457
			c0-2.244,0.534-4.059,1.602-5.441c1.068-1.381,2.35-2.361,3.837-2.945c1.491-0.584,2.903-0.873,4.241-0.873
			c1.555,0,3.033,0.346,4.438,1.037c1.401,0.689,2.55,1.703,3.446,3.043c0.895,1.336,1.365,2.923,1.408,4.76
			c0,0.562-0.01,1.046-0.031,1.457c-0.022,0.41-0.044,0.668-0.065,0.775H42.143c0.258,1.252,0.906,2.105,1.941,2.558
			c1.037,0.454,2.01,0.681,2.914,0.681c1.166,0,2.096-0.21,2.785-0.631c0.689-0.424,1.284-0.902,1.781-1.441l3.755,2.17
			c-2.029,2.762-4.803,4.143-8.321,4.143C45.618,25.295,44.186,25.004,42.709,24.42z M43.695,11.973
			c-0.842,0.658-1.314,1.463-1.423,2.414h8.901c-0.062-0.562-0.279-1.103-0.645-1.621c-0.367-0.519-0.858-0.944-1.476-1.277
			c-0.614-0.337-1.311-0.504-2.087-0.504C45.627,10.984,44.537,11.314,43.695,11.973z"/>
		<path fill="#1502CD" d="M59.854,22.479l2.525-3.367c0.777,0.541,1.685,0.992,2.721,1.361c1.035,0.365,2.049,0.548,3.043,0.548
			c0.732,0,1.342-0.149,1.828-0.452c0.484-0.301,0.729-0.679,0.729-1.133c0-0.453-0.274-0.771-0.826-0.955
			c-0.55-0.182-1.084-0.313-1.603-0.387c-0.517-0.078-0.853-0.125-1.003-0.147c-1.295-0.214-2.414-0.476-3.351-0.778
			c-0.94-0.301-1.792-0.84-2.56-1.618c-0.766-0.776-1.148-1.846-1.148-3.206c0-2.243,0.814-3.745,2.443-4.5
			c1.631-0.754,3.265-1.134,4.905-1.134c1.404,0,2.699,0.206,3.886,0.617c1.188,0.411,2.364,1.058,3.529,1.941l-2.524,3.303
			c-0.845-0.495-1.673-0.896-2.494-1.198c-0.819-0.302-1.671-0.453-2.558-0.453c-0.539,0-1.062,0.119-1.57,0.355
			c-0.506,0.24-0.762,0.561-0.762,0.972c0,0.519,0.352,0.886,1.052,1.103c0.702,0.214,1.476,0.377,2.316,0.484
			c1.511,0.259,2.721,0.529,3.626,0.811c0.906,0.28,1.711,0.803,2.412,1.57c0.701,0.764,1.053,1.851,1.053,3.252
			c0,1.857-0.637,3.287-1.91,4.29c-1.273,1.005-3.076,1.507-5.408,1.507C64.968,25.264,62.184,24.336,59.854,22.479z"/>
		<path fill="#1502CD" d="M84.038,24.051c-1.489-0.832-2.671-1.959-3.545-3.385c-0.875-1.426-1.312-2.98-1.312-4.662
			c0-1.686,0.437-3.232,1.312-4.646c0.874-1.414,2.05-2.538,3.53-3.368c1.479-0.832,3.091-1.246,4.84-1.246
			c1.877,0,3.576,0.447,5.1,1.342c1.521,0.896,2.736,2.176,3.643,3.838l-4.371,1.717c-0.518-0.885-1.156-1.549-1.912-1.992
			c-0.754-0.441-1.575-0.664-2.459-0.664c-1.405,0-2.564,0.476-3.48,1.425c-0.918,0.95-1.377,2.149-1.377,3.595
			c0,1.447,0.465,2.645,1.394,3.592c0.928,0.951,2.093,1.425,3.495,1.425c1.943,0,3.445-0.862,4.5-2.588l4.113,1.617
			c-1.705,3.497-4.576,5.245-8.613,5.245C87.146,25.295,85.527,24.881,84.038,24.051z"/>
		<path fill="#1502CD" d="M106.266,24.42c-1.479-0.58-2.746-1.568-3.804-2.959c-1.059-1.393-1.587-3.212-1.587-5.457
			c0-2.244,0.535-4.059,1.603-5.441c1.069-1.381,2.347-2.361,3.837-2.945s2.902-0.873,4.242-0.873c1.553,0,3.031,0.346,4.436,1.037
			c1.402,0.689,2.551,1.703,3.447,3.043c0.896,1.336,1.366,2.923,1.409,4.76c0,0.562-0.013,1.046-0.032,1.457
			c-0.021,0.41-0.043,0.668-0.064,0.775h-14.053c0.26,1.252,0.906,2.105,1.943,2.558c1.035,0.454,2.006,0.681,2.914,0.681
			c1.165,0,2.093-0.21,2.784-0.631c0.691-0.424,1.284-0.902,1.78-1.441l3.757,2.17c-2.029,2.762-4.804,4.143-8.321,4.143
			C109.174,25.295,107.743,25.004,106.266,24.42z M107.254,11.973c-0.843,0.658-1.318,1.463-1.424,2.414h8.902
			c-0.064-0.562-0.281-1.103-0.648-1.621c-0.365-0.519-0.857-0.944-1.472-1.277c-0.616-0.337-1.312-0.504-2.09-0.504
			C109.185,10.984,108.096,11.314,107.254,11.973z"/>
		<path fill="#1502CD" d="M139.323,8.686c1.111,1.317,1.669,3.195,1.669,5.633v10.525h-4.955V14.318
			c0-2.395-1.143-3.593-3.432-3.593c-0.886,0-1.684,0.352-2.395,1.052c-0.713,0.703-1.049,1.918-1.006,3.643v9.424h-4.824V7.033
			h4.824v1.588c0.584-0.581,1.316-1.047,2.203-1.393c0.884-0.344,1.736-0.519,2.559-0.519C136.426,6.71,138.213,7.37,139.323,8.686z
			"/>
		<path fill="#1502CD" d="M152.355,18.498c0,0.754,0.129,1.385,0.389,1.893c0.259,0.508,0.863,0.762,1.812,0.762
			c0.433,0,0.842-0.021,1.23-0.065v4.079c-0.777,0.086-1.5,0.129-2.168,0.129c-1.381,0-2.499-0.111-3.352-0.339
			c-0.854-0.228-1.518-0.665-1.992-1.31c-0.475-0.65-0.711-1.576-0.711-2.786v-9.876h-2.17v-4.24h2.17v-4.76h4.791v4.76h3.562v4.24
			h-3.562V18.498z"/>
	</g>
	<g>
		<path fill="#1502CD" stroke="#1502CD" stroke-width="0.5" stroke-miterlimit="10" d="M90.63,38.221
			c-0.581,0.143-1.114,0.475-1.599,1.003c-0.486,0.524-0.729,1.295-0.729,2.306v4.917h-3.016V35.318h3.016v1.477
			c0.498-0.66,1.107-1.109,1.83-1.346c0.721-0.236,1.379-0.346,1.973-0.334v2.954C91.701,38.029,91.209,38.08,90.63,38.221z"/>
		<path fill="#1502CD" stroke="#1502CD" stroke-width="0.5" stroke-miterlimit="10" d="M103.762,45.334
			c-0.256,0.352-0.697,0.665-1.326,0.941c-0.627,0.275-1.312,0.416-2.053,0.416c-1.146,0-2.142-0.258-2.986-0.77
			c-0.842-0.513-1.486-1.212-1.932-2.096c-0.446-0.881-0.668-1.865-0.668-2.943s0.222-2.061,0.668-2.945
			c0.445-0.884,1.09-1.581,1.932-2.094c0.845-0.512,1.84-0.769,2.986-0.769c0.77,0,1.446,0.13,2.035,0.396
			c0.584,0.262,1.035,0.596,1.344,1v-1.152h2.995v11.128h-2.995V45.334z M103.053,38.606c-0.553-0.587-1.295-0.88-2.225-0.88
			c-0.945,0-1.69,0.293-2.236,0.88c-0.547,0.587-0.821,1.345-0.821,2.276c0,0.902,0.28,1.651,0.841,2.246
			c0.559,0.594,1.3,0.89,2.217,0.89c0.943,0,1.689-0.279,2.236-0.838c0.545-0.562,0.818-1.327,0.818-2.298
			C103.883,39.951,103.605,39.193,103.053,38.606z"/>
		<path fill="#1502CD" stroke="#1502CD" stroke-width="0.5" stroke-miterlimit="10" d="M115.115,42.48
			c0,0.474,0.079,0.867,0.242,1.186c0.162,0.316,0.539,0.475,1.133,0.475c0.27,0,0.526-0.014,0.77-0.04v2.55
			c-0.486,0.054-0.938,0.08-1.355,0.08c-0.864,0-1.562-0.071-2.094-0.213c-0.535-0.143-0.948-0.414-1.244-0.818
			c-0.299-0.404-0.446-0.984-0.446-1.74v-6.172h-1.356v-2.652h1.356v-2.973h2.995v2.973h2.226v2.652h-2.226V42.48z"/>
		<path fill="#1502CD" stroke="#1502CD" stroke-width="0.5" stroke-miterlimit="10" d="M124.119,33.668
			c-0.324,0.318-0.715,0.475-1.173,0.475c-0.473,0-0.874-0.156-1.204-0.475c-0.332-0.316-0.496-0.703-0.496-1.162
			c0-0.445,0.164-0.828,0.496-1.145c0.33-0.316,0.731-0.475,1.204-0.475c0.458,0,0.849,0.158,1.173,0.475s0.486,0.699,0.486,1.145
			C124.605,32.965,124.443,33.352,124.119,33.668z M121.428,35.338h3.037v11.108h-3.037V35.338z"/>
		<path fill="#1502CD" stroke="#1502CD" stroke-width="0.5" stroke-miterlimit="10" d="M138.396,36.35
			c0.695,0.824,1.041,1.998,1.041,3.521v6.575h-3.096v-6.575c0-1.496-0.715-2.246-2.145-2.246c-0.555,0-1.053,0.219-1.498,0.657
			s-0.654,1.198-0.626,2.276v5.888h-3.016V35.318h3.016v0.992c0.362-0.365,0.821-0.654,1.375-0.871
			c0.552-0.216,1.087-0.324,1.599-0.324C136.586,35.115,137.699,35.527,138.396,36.35z"/>
		<path fill="#1502CD" stroke="#1502CD" stroke-width="0.5" stroke-miterlimit="10" d="M153.957,49.252
			c-0.99,0.923-2.371,1.385-4.139,1.385c-2.118,0-3.893-0.561-5.322-1.682l1.479-2.145c0.457,0.364,1.002,0.664,1.629,0.893
			c0.628,0.229,1.293,0.342,1.992,0.342c1.904,0,2.855-0.862,2.855-2.59v-0.182c-0.811,0.66-1.85,0.99-3.118,0.99
			c-1.173,0-2.205-0.243-3.096-0.737c-0.891-0.493-1.571-1.163-2.044-2.013c-0.472-0.85-0.709-1.787-0.709-2.814
			c0-1.037,0.237-1.979,0.709-2.821c0.473-0.843,1.15-1.514,2.035-2.014c0.883-0.499,1.918-0.749,3.104-0.749
			c1.269,0,2.308,0.33,3.118,0.991v-0.788h2.994v10.137C155.445,47.061,154.947,48.326,153.957,49.252z M151.063,43.321
			c0.466-0.265,0.833-0.626,1.103-1.095c0.271-0.464,0.404-0.973,0.404-1.527c0-0.564-0.134-1.077-0.404-1.537
			c-0.27-0.457-0.637-0.818-1.103-1.082c-0.465-0.264-0.981-0.395-1.548-0.395c-0.917,0-1.656,0.285-2.217,0.859
			s-0.84,1.293-0.84,2.154c0,0.893,0.273,1.617,0.82,2.176c0.548,0.562,1.291,0.84,2.236,0.84
			C150.082,43.715,150.599,43.585,151.063,43.321z"/>
	</g>
	<g>
		<path fill="#8E8E8E" d="M196.215,6.739h-2.299v6.192h-0.826V6.739h-2.301V5.973h5.426V6.739z"/>
		<path fill="#8E8E8E" d="M198.368,5.973h0.824v2.949h3.718V5.973h0.824v6.959h-0.824V9.688h-3.718v3.244h-0.824V5.973z"/>
		<path fill="#8E8E8E" d="M206.643,5.973h4.375v0.767h-3.549v2.183h3.312v0.766h-3.312v2.479h3.726v0.766h-4.552V5.973z"/>
		<path fill="#8E8E8E" d="M216.758,5.973h0.912l1.584,5.777h0.02l1.71-5.777h0.925l1.699,5.777h0.02l1.611-5.777h0.865l-2.045,6.959
			h-0.893l-1.721-5.898h-0.02l-1.729,5.898h-0.905L216.758,5.973z"/>
		<path fill="#8E8E8E" d="M231.442,13.108c-0.532,0-1.017-0.091-1.46-0.274s-0.826-0.439-1.15-0.763
			c-0.325-0.324-0.576-0.71-0.758-1.161c-0.18-0.447-0.27-0.935-0.27-1.458c0-0.526,0.09-1.011,0.27-1.46
			c0.182-0.447,0.433-0.835,0.758-1.159c0.324-0.323,0.707-0.579,1.15-0.763s0.928-0.273,1.46-0.273c0.529,0,1.016,0.09,1.46,0.273
			c0.441,0.184,0.824,0.439,1.148,0.763c0.325,0.324,0.576,0.712,0.759,1.159c0.179,0.449,0.269,0.934,0.269,1.46
			c0,0.523-0.09,1.011-0.269,1.458c-0.183,0.451-0.434,0.837-0.759,1.161c-0.324,0.323-0.707,0.579-1.148,0.763
			C232.458,13.018,231.972,13.108,231.442,13.108z M231.442,12.343c0.405,0,0.776-0.077,1.114-0.228s0.629-0.355,0.87-0.618
			c0.243-0.263,0.433-0.569,0.565-0.92c0.135-0.349,0.201-0.726,0.201-1.125s-0.066-0.776-0.201-1.126
			c-0.133-0.352-0.322-0.656-0.565-0.919c-0.241-0.263-0.532-0.47-0.87-0.618c-0.338-0.152-0.709-0.228-1.114-0.228
			c-0.407,0-0.779,0.075-1.116,0.228c-0.338,0.148-0.628,0.355-0.87,0.618s-0.431,0.567-0.565,0.919
			c-0.134,0.35-0.201,0.727-0.201,1.126s0.067,0.776,0.201,1.125c0.135,0.351,0.323,0.657,0.565,0.92s0.532,0.468,0.87,0.618
			C230.663,12.266,231.035,12.343,231.442,12.343z"/>
		<path fill="#8E8E8E" d="M237.584,5.973h1.779c0.336,0,0.668,0.02,0.999,0.06c0.331,0.038,0.627,0.125,0.89,0.255
			c0.262,0.131,0.475,0.324,0.639,0.574c0.163,0.253,0.245,0.596,0.245,1.027c0,0.512-0.154,0.925-0.463,1.238
			c-0.308,0.314-0.733,0.516-1.276,0.6l1.976,3.205h-1.013l-1.887-3.126h-1.062v3.126h-0.826V5.973z M238.41,9.04h0.738
			c0.229,0,0.467-0.008,0.713-0.021c0.245-0.014,0.471-0.057,0.678-0.127c0.206-0.072,0.376-0.186,0.51-0.34
			c0.135-0.154,0.203-0.375,0.203-0.664c0-0.248-0.05-0.449-0.148-0.599c-0.1-0.151-0.227-0.269-0.388-0.349
			c-0.161-0.084-0.341-0.136-0.542-0.164c-0.199-0.024-0.4-0.038-0.604-0.038h-1.16V9.04z"/>
		<path fill="#8E8E8E" d="M244.77,5.973h0.826v6.193h3.184v0.766h-4.01V5.973z"/>
		<path fill="#8E8E8E" d="M250.736,5.973h2.674c0.228,0,0.471,0.027,0.728,0.078c0.255,0.053,0.508,0.136,0.759,0.252
			c0.256,0.113,0.496,0.264,0.729,0.447c0.232,0.182,0.439,0.402,0.615,0.662c0.178,0.26,0.317,0.557,0.422,0.895
			c0.105,0.337,0.158,0.72,0.158,1.146s-0.053,0.808-0.158,1.146c-0.104,0.336-0.244,0.634-0.422,0.895
			c-0.176,0.258-0.383,0.48-0.615,0.662c-0.232,0.184-0.473,0.334-0.729,0.447c-0.251,0.115-0.504,0.198-0.759,0.25
			c-0.257,0.055-0.5,0.08-0.728,0.08h-2.674V5.973z M251.562,12.166h1.572c0.4,0,0.77-0.055,1.109-0.156
			c0.342-0.107,0.637-0.27,0.885-0.488c0.25-0.221,0.445-0.5,0.59-0.841s0.217-0.751,0.217-1.229c0-0.479-0.072-0.888-0.217-1.229
			s-0.34-0.622-0.59-0.841c-0.248-0.219-0.543-0.381-0.885-0.488c-0.34-0.102-0.709-0.155-1.109-0.155h-1.572V12.166z"/>
		<path fill="#8E8E8E" d="M259.799,8.33h-0.747l0.657-2.357h0.895L259.799,8.33z"/>
		<path fill="#8E8E8E" d="M266.539,7.201c-0.135-0.223-0.318-0.385-0.547-0.488c-0.23-0.099-0.47-0.151-0.718-0.151
			c-0.184,0-0.364,0.023-0.542,0.067c-0.176,0.049-0.336,0.116-0.477,0.209c-0.139,0.091-0.254,0.215-0.34,0.363
			c-0.083,0.15-0.127,0.328-0.127,0.53c0,0.157,0.025,0.296,0.073,0.419c0.05,0.121,0.131,0.23,0.242,0.33
			c0.11,0.097,0.263,0.188,0.452,0.273s0.422,0.172,0.695,0.256c0.271,0.084,0.529,0.177,0.783,0.275
			c0.252,0.098,0.475,0.223,0.668,0.372c0.193,0.151,0.348,0.341,0.463,0.565c0.114,0.229,0.172,0.51,0.172,0.852
			c0,0.346-0.07,0.648-0.207,0.902c-0.137,0.257-0.319,0.469-0.545,0.635c-0.227,0.168-0.488,0.293-0.782,0.373
			c-0.295,0.084-0.599,0.124-0.913,0.124c-0.203,0-0.406-0.019-0.61-0.053c-0.202-0.037-0.397-0.095-0.585-0.168
			c-0.187-0.075-0.361-0.175-0.524-0.296c-0.165-0.121-0.308-0.271-0.425-0.447l0.709-0.58c0.149,0.257,0.361,0.449,0.628,0.58
			c0.269,0.132,0.556,0.198,0.856,0.198c0.178,0,0.355-0.028,0.535-0.08c0.181-0.053,0.343-0.13,0.488-0.231
			c0.142-0.102,0.26-0.227,0.352-0.377c0.093-0.15,0.137-0.326,0.137-0.521c0-0.218-0.035-0.393-0.105-0.526
			c-0.074-0.134-0.184-0.25-0.336-0.351c-0.15-0.097-0.34-0.185-0.568-0.266c-0.232-0.076-0.5-0.169-0.807-0.273
			c-0.25-0.078-0.479-0.168-0.689-0.271c-0.208-0.1-0.391-0.225-0.545-0.373c-0.154-0.146-0.274-0.322-0.363-0.529
			c-0.088-0.207-0.132-0.453-0.132-0.744c0-0.333,0.065-0.625,0.194-0.873c0.133-0.248,0.311-0.457,0.533-0.623
			c0.222-0.168,0.475-0.293,0.756-0.38c0.281-0.085,0.577-0.126,0.886-0.126c0.392,0,0.75,0.059,1.075,0.182
			c0.324,0.12,0.615,0.332,0.871,0.633L266.539,7.201z"/>
		<path fill="#8E8E8E" d="M273.795,5.973h0.826v6.193h3.185v0.766h-4.011V5.973z"/>
		<path fill="#8E8E8E" d="M279.889,5.973h4.374v0.767h-3.548v2.183h3.312v0.766h-3.312v2.479h3.726v0.766h-4.552V5.973z"/>
		<path fill="#8E8E8E" d="M289.158,5.973h0.776l2.958,6.959h-0.963l-0.707-1.711h-3.479l-0.72,1.711h-0.932L289.158,5.973z
			 M289.531,7.033h-0.02l-1.445,3.42h2.84L289.531,7.033z"/>
		<path fill="#8E8E8E" d="M294.868,5.973h2.673c0.23,0,0.473,0.027,0.729,0.078c0.255,0.053,0.51,0.136,0.762,0.252
			c0.251,0.113,0.494,0.264,0.728,0.447c0.231,0.182,0.437,0.402,0.612,0.662c0.18,0.26,0.318,0.557,0.424,0.895
			c0.104,0.337,0.157,0.72,0.157,1.146s-0.053,0.808-0.157,1.146c-0.105,0.336-0.244,0.634-0.424,0.895
			c-0.176,0.258-0.381,0.48-0.612,0.662c-0.233,0.184-0.477,0.334-0.728,0.447c-0.252,0.115-0.507,0.198-0.762,0.25
			c-0.256,0.055-0.498,0.08-0.729,0.08h-2.673V5.973z M295.692,12.166h1.574c0.399,0,0.769-0.055,1.111-0.156
			c0.339-0.107,0.634-0.27,0.884-0.488c0.249-0.221,0.445-0.5,0.588-0.841c0.146-0.341,0.219-0.751,0.219-1.229
			c0-0.479-0.073-0.888-0.219-1.229c-0.143-0.341-0.339-0.622-0.588-0.841c-0.25-0.219-0.545-0.381-0.884-0.488
			c-0.343-0.102-0.712-0.155-1.111-0.155h-1.574V12.166z"/>
		<path fill="#8E8E8E" d="M303.46,5.973h0.825v6.959h-0.825V5.973z"/>
		<path fill="#8E8E8E" d="M307.193,5.973h1.043l4.029,5.777h0.02V5.973h0.826v6.959h-1.041l-4.031-5.78h-0.021v5.78h-0.825V5.973z"
			/>
		<path fill="#8E8E8E" d="M321.938,12.46c-0.401,0.222-0.82,0.386-1.262,0.491c-0.443,0.104-0.891,0.157-1.344,0.157
			c-0.543,0-1.039-0.09-1.494-0.266c-0.453-0.176-0.842-0.426-1.174-0.747c-0.33-0.32-0.588-0.705-0.77-1.154
			c-0.186-0.451-0.277-0.945-0.277-1.489c0-0.551,0.098-1.05,0.289-1.499c0.195-0.449,0.461-0.833,0.803-1.15
			c0.34-0.318,0.736-0.565,1.188-0.741c0.452-0.177,0.939-0.265,1.464-0.265c0.461,0,0.9,0.067,1.323,0.205
			c0.421,0.137,0.802,0.373,1.136,0.708l-0.621,0.647c-0.235-0.256-0.521-0.451-0.859-0.589c-0.338-0.14-0.682-0.207-1.037-0.207
			c-0.399,0-0.77,0.073-1.109,0.216c-0.341,0.146-0.637,0.346-0.891,0.601c-0.251,0.255-0.449,0.561-0.59,0.913
			c-0.14,0.354-0.211,0.741-0.211,1.161c0,0.412,0.071,0.796,0.211,1.149c0.141,0.354,0.339,0.661,0.59,0.92
			c0.254,0.26,0.557,0.46,0.909,0.604c0.354,0.145,0.744,0.218,1.171,0.218c0.281,0,0.576-0.036,0.883-0.104
			c0.309-0.068,0.592-0.167,0.848-0.3V9.806h-1.604V9.04h2.428V12.46z"/>
		<path fill="#8E8E8E" d="M193.808,23.316h0.774l2.959,6.959h-0.961l-0.709-1.709h-3.479l-0.719,1.709h-0.934L193.808,23.316z
			 M194.18,24.381h-0.019l-1.446,3.418h2.842L194.18,24.381z"/>
		<path fill="#8E8E8E" d="M204.863,27.623c0,0.379-0.047,0.74-0.142,1.082c-0.096,0.34-0.247,0.641-0.452,0.898
			c-0.207,0.259-0.477,0.465-0.812,0.619c-0.335,0.153-0.741,0.229-1.22,0.229c-0.477,0-0.884-0.075-1.217-0.229
			c-0.336-0.154-0.605-0.36-0.812-0.619c-0.205-0.258-0.356-0.559-0.45-0.898c-0.096-0.342-0.142-0.703-0.142-1.082v-4.307h0.824
			v4.188c0,0.284,0.029,0.556,0.089,0.818c0.059,0.261,0.155,0.494,0.295,0.697c0.136,0.202,0.321,0.364,0.551,0.484
			c0.229,0.123,0.516,0.184,0.862,0.184c0.348,0,0.638-0.061,0.866-0.184c0.229-0.12,0.413-0.282,0.551-0.484
			c0.138-0.203,0.236-0.437,0.295-0.697c0.059-0.263,0.089-0.534,0.089-0.818v-4.188h0.824V27.623z"/>
		<path fill="#8E8E8E" d="M212.412,24.084h-2.3v6.191h-0.825v-6.191h-2.3v-0.768h5.425V24.084z"/>
		<path fill="#8E8E8E" d="M214.564,23.316h0.826v2.951h3.717v-2.951h0.825v6.959h-0.825v-3.244h-3.717v3.244h-0.826V23.316z"/>
		<path fill="#8E8E8E" d="M226.074,30.451c-0.529,0-1.017-0.089-1.458-0.272c-0.442-0.184-0.825-0.438-1.151-0.763
			c-0.324-0.322-0.576-0.711-0.756-1.158c-0.181-0.448-0.27-0.936-0.27-1.461c0-0.524,0.089-1.011,0.27-1.459
			c0.18-0.448,0.432-0.836,0.756-1.16c0.326-0.324,0.709-0.578,1.151-0.762c0.441-0.184,0.929-0.275,1.458-0.275
			c0.531,0,1.018,0.092,1.459,0.275c0.444,0.184,0.827,0.438,1.151,0.762c0.325,0.324,0.577,0.712,0.756,1.16
			c0.181,0.448,0.271,0.935,0.271,1.459c0,0.525-0.09,1.013-0.271,1.461c-0.179,0.447-0.431,0.836-0.756,1.158
			c-0.324,0.324-0.707,0.579-1.151,0.763C227.092,30.362,226.605,30.451,226.074,30.451z M226.074,29.688
			c0.406,0,0.778-0.075,1.117-0.227c0.337-0.151,0.624-0.357,0.869-0.619c0.242-0.262,0.432-0.568,0.565-0.92
			c0.134-0.35,0.202-0.725,0.202-1.125c0-0.399-0.068-0.774-0.202-1.125c-0.134-0.35-0.323-0.656-0.565-0.918
			c-0.245-0.262-0.532-0.469-0.869-0.619c-0.339-0.152-0.711-0.227-1.117-0.227s-0.777,0.074-1.113,0.227
			c-0.34,0.15-0.63,0.357-0.871,0.619c-0.242,0.262-0.432,0.568-0.564,0.918c-0.136,0.351-0.202,0.726-0.202,1.125
			c0,0.4,0.066,0.775,0.202,1.125c0.133,0.352,0.322,0.658,0.564,0.92c0.241,0.262,0.531,0.468,0.871,0.619
			C225.297,29.612,225.668,29.688,226.074,29.688z"/>
		<path fill="#8E8E8E" d="M232.217,23.316h1.781c0.334,0,0.666,0.021,0.997,0.061s0.628,0.124,0.89,0.256
			c0.262,0.131,0.475,0.323,0.639,0.574c0.163,0.252,0.246,0.596,0.246,1.027c0,0.51-0.154,0.924-0.463,1.238
			c-0.309,0.315-0.732,0.514-1.277,0.6l1.975,3.203h-1.012l-1.888-3.123h-1.06v3.123h-0.828V23.316z M233.045,26.384h0.735
			c0.229,0,0.468-0.007,0.713-0.019c0.245-0.014,0.473-0.056,0.679-0.13c0.205-0.071,0.377-0.184,0.512-0.338
			c0.134-0.153,0.201-0.375,0.201-0.663c0-0.249-0.051-0.449-0.147-0.6c-0.099-0.15-0.228-0.267-0.388-0.349
			c-0.16-0.081-0.341-0.138-0.54-0.162c-0.2-0.026-0.403-0.04-0.606-0.04h-1.158V26.384z"/>
		<path fill="#8E8E8E" d="M239.402,23.316h0.826v6.959h-0.826V23.316z"/>
		<path fill="#8E8E8E" d="M247.806,24.084h-2.3v6.191h-0.825v-6.191h-2.3v-0.768h5.425V24.084z"/>
		<path fill="#8E8E8E" d="M251.601,27.279l-2.595-3.963h1.052l1.955,3.147l2.016-3.147h0.992l-2.595,3.963v2.996h-0.825V27.279z"/>
		<path fill="#8E8E8E" d="M264.123,30.451c-0.529,0-1.019-0.089-1.459-0.272c-0.442-0.184-0.826-0.438-1.15-0.763
			c-0.324-0.322-0.578-0.711-0.757-1.158c-0.181-0.448-0.271-0.936-0.271-1.461c0-0.524,0.09-1.011,0.271-1.459
			c0.179-0.448,0.433-0.836,0.757-1.16s0.708-0.578,1.15-0.762c0.44-0.184,0.93-0.275,1.459-0.275c0.531,0,1.018,0.092,1.46,0.275
			c0.441,0.184,0.825,0.438,1.149,0.762s0.578,0.712,0.756,1.16c0.182,0.448,0.271,0.935,0.271,1.459
			c0,0.525-0.089,1.013-0.271,1.461c-0.178,0.447-0.432,0.836-0.756,1.158c-0.324,0.324-0.708,0.579-1.149,0.763
			C265.141,30.362,264.654,30.451,264.123,30.451z M264.123,29.688c0.406,0,0.777-0.075,1.117-0.227
			c0.336-0.151,0.625-0.357,0.869-0.619c0.242-0.262,0.429-0.568,0.564-0.92c0.135-0.35,0.202-0.725,0.202-1.125
			c0-0.399-0.067-0.774-0.202-1.125c-0.136-0.35-0.322-0.656-0.564-0.918c-0.244-0.262-0.533-0.469-0.869-0.619
			c-0.34-0.152-0.711-0.227-1.117-0.227c-0.408,0-0.777,0.074-1.115,0.227c-0.339,0.15-0.627,0.357-0.869,0.619
			c-0.244,0.262-0.433,0.568-0.565,0.918c-0.136,0.351-0.202,0.726-0.202,1.125c0,0.4,0.066,0.775,0.202,1.125
			c0.133,0.352,0.321,0.658,0.565,0.92c0.242,0.262,0.53,0.468,0.869,0.619C263.346,29.612,263.715,29.688,264.123,29.688z"/>
		<path fill="#8E8E8E" d="M270.266,23.316h1.043l4.029,5.78h0.02v-5.78h0.826v6.959h-1.043l-4.029-5.777h-0.02v5.777h-0.826V23.316z
			"/>
		<path fill="#8E8E8E" d="M191.545,40.662h0.826v2.951h3.716v-2.951h0.825v6.961h-0.825v-3.244h-3.716v3.244h-0.826V40.662z"/>
		<path fill="#8E8E8E" d="M202.083,40.662h0.776l2.958,6.961h-0.963l-0.708-1.711h-3.479l-0.718,1.711h-0.935L202.083,40.662z
			 M202.456,41.725h-0.019l-1.445,3.42h2.84L202.456,41.725z"/>
		<path fill="#8E8E8E" d="M207.921,40.662h0.825v6.195h3.186v0.766h-4.011V40.662z"/>
		<path fill="#8E8E8E" d="M216.275,40.662h0.777l2.959,6.961h-0.963l-0.709-1.711h-3.479l-0.719,1.711h-0.933L216.275,40.662z
			 M216.65,41.725h-0.021l-1.444,3.42h2.84L216.65,41.725z"/>
		<path fill="#8E8E8E" d="M222.115,40.662h0.825v6.195h3.184v0.766h-4.009V40.662z"/>
		<path fill="#8E8E8E" d="M236.788,41.43h-2.3v6.193h-0.824V41.43h-2.301v-0.768h5.425V41.43z"/>
		<path fill="#8E8E8E" d="M238.939,40.662h1.781c0.333,0,0.666,0.021,0.995,0.062c0.332,0.037,0.63,0.124,0.892,0.253
			c0.262,0.133,0.475,0.324,0.638,0.576c0.164,0.252,0.247,0.594,0.247,1.027c0,0.512-0.154,0.924-0.463,1.236
			c-0.307,0.316-0.734,0.516-1.277,0.601l1.975,3.206h-1.012l-1.888-3.126h-1.061v3.126h-0.827V40.662z M239.767,43.73h0.737
			c0.229,0,0.467-0.008,0.712-0.021c0.247-0.014,0.472-0.058,0.679-0.128s0.375-0.186,0.512-0.34
			c0.134-0.152,0.201-0.373,0.201-0.662c0-0.25-0.051-0.449-0.147-0.6c-0.097-0.152-0.228-0.27-0.39-0.35
			c-0.158-0.082-0.339-0.137-0.538-0.163c-0.2-0.024-0.403-0.038-0.606-0.038h-1.159V43.73z"/>
		<path fill="#8E8E8E" d="M248.388,40.662h0.776l2.957,6.961h-0.963l-0.709-1.711h-3.479l-0.717,1.711h-0.935L248.388,40.662z
			 M248.76,41.725h-0.021l-1.444,3.42h2.842L248.76,41.725z"/>
		<path fill="#8E8E8E" d="M252.82,40.662h0.934l2.144,5.723h0.019l2.211-5.723h0.875l-2.723,6.961h-0.796L252.82,40.662z"/>
		<path fill="#8E8E8E" d="M260.959,40.662h4.373v0.768h-3.549v2.184h3.312v0.766h-3.312v2.479h3.726v0.766h-4.55V40.662z"/>
		<path fill="#8E8E8E" d="M267.966,40.662h0.825v6.195h3.184v0.766h-4.009V40.662z"/>
	</g>
	<g>
		<rect x="172.867" y="0.365" fill="#7C7C7C" width="0.288" height="50.299"/>
	</g>
	<g>
		<g>
			<path fill="#AFAFAF" d="M50.31,37.002c-0.808,0.854-1.3,2.006-1.301,3.289c-0.001,2.844,2.089,4.873,4.772,4.881
				c1.535,0.006,2.825-0.695,3.666-1.756c-1.396-0.198-2.906-0.861-4.247-1.978C51.65,40.15,50.65,38.529,50.31,37.002z"/>
		</g>
		<g>
			<path fill="#AFAFAF" d="M20.399,36.981c-2.377-1.242-4.604-0.179-5.493,0.364c-0.705,0.799-1.143,1.843-1.188,3.005
				c-0.105,2.841,1.912,4.944,4.591,5.051c2.678,0.106,4.72-1.944,4.876-4.426C23.076,40.101,22.592,38.128,20.399,36.981z"/>
		</g>
		<g>
			<path fill="#AFAFAF" d="M31.746,38.23c-2.353-1.332-4.199-1.078-5.126-0.785c-0.466,0.658-0.772,1.445-0.859,2.312
				c-0.28,2.83,1.601,5.053,4.267,5.326c2.271,0.232,4.176-1.123,4.885-3.051C34.734,41.172,34.087,39.555,31.746,38.23z"/>
		</g>
		<g>
			<path fill="#AFAFAF" d="M38.303,37.859c-0.269,0.513-0.473,0.967-0.582,1.586c-0.492,2.801,1.219,5.158,3.858,5.631
				c1.994,0.357,3.641-0.506,4.716-1.997C43.618,39.338,39.57,38.109,38.303,37.859z"/>
		</g>
		<g>
			<path fill="#AFAFAF" d="M6.523,35.732c-2.709,0.025-4.798,2.145-4.792,4.808c0.008,2.845,2.106,4.866,4.789,4.866
				c2.757,0,4.757-2.255,4.7-4.832C11.355,38.01,9.041,35.711,6.523,35.732z"/>
		</g>
		<g>
			<path fill="#AFAFAF" d="M63.566,42.443c-1.602-1.291-2.484-3.076-2.506-4.717c-0.465,0.75-0.726,1.641-0.713,2.6
				c0.041,2.842,2.163,4.84,4.846,4.807c1.202-0.014,2.245-0.465,3.041-1.172C66.729,44.114,65.013,43.609,63.566,42.443z"/>
		</g>
		<g>
			<path fill="#AFAFAF" d="M73.845,43.332c-1.764-1.513-2.392-3.798-1.729-5.646c-0.468,0.726-0.743,1.59-0.759,2.528
				c-0.047,2.842,2.011,4.906,4.693,4.957c0.81,0.016,1.552-0.175,2.203-0.504C76.791,44.898,75.153,44.459,73.845,43.332z"/>
		</g>
	</g>
</g>
</svg>
