<svg width="1174" height="506" viewBox="0 0 1174 506" fill="none" xmlns="http://www.w3.org/2000/svg">
<path d="M588.5 461H85.5C52.3629 461 25.5 434.137 25.5 401V340C25.5 306.863 52.3629 280 85.5 280H187.889" stroke="#E3E2E6" stroke-linecap="round" stroke-linejoin="round" stroke-dasharray="5 5"/>
<path d="M977.5 99H1088.5C1121.64 99 1148.5 125.863 1148.5 159V220C1148.5 253.137 1121.64 280 1088.5 280H979.5" stroke="#E3E2E6" stroke-linecap="round" stroke-linejoin="round"/>
<path d="M186 99H716" stroke="#E3E2E6" stroke-dasharray="5 5"/>
<path d="M714.5 280L979.5 280" stroke="#E3E2E6" stroke-dasharray="5 5"/>
<path d="M715 99L980 99" stroke="#E3E2E6"/>
<path d="M188.5 280L710.5 280" stroke="#E3E2E6"/>
<rect width="105" height="25" transform="translate(133.25 61.6699)" fill="#FFFAC6"/>
<path d="M162.245 78.8619C160.277 78.8619 158.853 78.1739 157.909 77.1659L158.949 75.7259C159.685 76.5099 160.837 77.1979 162.325 77.1979C163.861 77.1979 164.469 76.4459 164.469 75.7419C164.469 73.5019 158.245 74.8939 158.245 70.9579C158.245 69.1979 159.797 67.8379 162.133 67.8379C163.797 67.8379 165.141 68.3659 166.133 69.3259L165.061 70.7179C164.229 69.8859 163.093 69.5019 161.973 69.5019C160.869 69.5019 160.165 70.0299 160.165 70.8299C160.165 72.8139 166.373 71.5819 166.373 75.5659C166.373 77.3419 165.125 78.8619 162.245 78.8619ZM168.881 69.9979C168.321 69.9979 167.841 69.5339 167.841 68.9579C167.841 68.3819 168.321 67.9179 168.881 67.9179C169.457 67.9179 169.921 68.3819 169.921 68.9579C169.921 69.5339 169.457 69.9979 168.881 69.9979ZM169.729 78.6699H168.049V70.9419H169.729V78.6699ZM175.044 81.8059C173.732 81.8059 172.756 81.5179 171.812 80.6539L172.596 79.4379C173.22 80.1579 174.02 80.4299 175.044 80.4299C176.148 80.4299 177.332 79.9179 177.332 78.3339V77.4059C176.74 78.1739 175.86 78.6859 174.852 78.6859C172.884 78.6859 171.428 77.2619 171.428 74.7179C171.428 72.2219 172.868 70.7499 174.852 70.7499C175.828 70.7499 176.708 71.1979 177.332 72.0139V70.9419H179.012V78.2699C179.012 81.0539 176.948 81.8059 175.044 81.8059ZM175.348 77.1979C176.132 77.1979 176.964 76.7339 177.332 76.1579V73.2779C176.964 72.7019 176.132 72.2379 175.348 72.2379C174.02 72.2379 173.172 73.2299 173.172 74.7179C173.172 76.2059 174.02 77.1979 175.348 77.1979ZM188.086 78.6699H186.406V73.8379C186.406 72.6379 185.798 72.2379 184.854 72.2379C183.99 72.2379 183.254 72.7499 182.87 73.2779V78.6699H181.19V70.9419H182.87V71.9979C183.382 71.3899 184.374 70.7499 185.59 70.7499C187.254 70.7499 188.086 71.6459 188.086 73.2299V78.6699ZM199.049 78.8619C195.945 78.8619 194.425 77.0859 194.425 74.4619V67.9979H196.313V74.3979C196.313 76.0939 197.257 77.1979 199.049 77.1979C200.825 77.1979 201.769 76.0939 201.769 74.3979V67.9979H203.657V74.4459C203.657 77.1019 202.137 78.8619 199.049 78.8619ZM210.037 78.8619C209.061 78.8619 208.181 78.4299 207.557 77.5979V81.6139H205.877V70.9419H207.557V71.9979C208.133 71.2299 209.029 70.7499 210.037 70.7499C212.037 70.7499 213.461 72.2539 213.461 74.7979C213.461 77.3419 212.037 78.8619 210.037 78.8619ZM209.541 77.3739C210.869 77.3739 211.717 76.3019 211.717 74.7979C211.717 73.3099 210.869 72.2379 209.541 72.2379C208.757 72.2379 207.925 72.7019 207.557 73.2779V76.3339C207.925 76.8939 208.757 77.3739 209.541 77.3739Z" fill="#7A3F0D"/>
<circle cx="185.75" cy="98.6699" r="3" fill="#FFFAC6" stroke="#7A3F0D" stroke-width="2"/>
<rect width="90" height="25" transform="translate(405.25 61.6699)" fill="#FFFAC6"/>
<path d="M440.4 78.6699H438.272L437.488 76.6219H432.592L431.808 78.6699H429.68L433.872 67.9979H436.208L440.4 78.6699ZM436.96 74.9739L435.04 69.8859L433.12 74.9739H436.96ZM445.678 78.8619C444.702 78.8619 443.822 78.4299 443.198 77.5979V81.6139H441.518V70.9419H443.198V71.9979C443.774 71.2299 444.67 70.7499 445.678 70.7499C447.678 70.7499 449.102 72.2539 449.102 74.7979C449.102 77.3419 447.678 78.8619 445.678 78.8619ZM445.182 77.3739C446.51 77.3739 447.358 76.3019 447.358 74.7979C447.358 73.3099 446.51 72.2379 445.182 72.2379C444.398 72.2379 443.566 72.7019 443.198 73.2779V76.3339C443.566 76.8939 444.398 77.3739 445.182 77.3739ZM454.928 78.8619C453.952 78.8619 453.072 78.4299 452.448 77.5979V81.6139H450.768V70.9419H452.448V71.9979C453.024 71.2299 453.92 70.7499 454.928 70.7499C456.928 70.7499 458.352 72.2539 458.352 74.7979C458.352 77.3419 456.928 78.8619 454.928 78.8619ZM454.432 77.3739C455.76 77.3739 456.608 76.3019 456.608 74.7979C456.608 73.3099 455.76 72.2379 454.432 72.2379C453.648 72.2379 452.816 72.7019 452.448 73.2779V76.3339C452.816 76.8939 453.648 77.3739 454.432 77.3739ZM461.698 78.6699H460.018V67.9979H461.698V78.6699ZM463.541 81.6939L463.797 80.1899C463.973 80.2699 464.245 80.3179 464.437 80.3179C464.965 80.3179 465.317 80.1579 465.541 79.6459L465.925 78.7659L462.757 70.9419H464.549L466.805 76.7339L469.061 70.9419H470.869L467.141 80.0619C466.613 81.3739 465.685 81.7899 464.485 81.8059C464.245 81.8059 463.781 81.7579 463.541 81.6939Z" fill="#7A3F0D"/>
<circle cx="450.25" cy="98.6699" r="3" fill="#FFFAC6" stroke="#7A3F0D" stroke-width="2"/>
<rect width="100" height="25" transform="translate(664.75 61.6699)" fill="#F1F3FF"/>
<path d="M698.47 78.6699H696.31L693.942 74.6859H692.086V78.6699H690.214V67.9979H694.902C697.014 67.9979 698.39 69.3739 698.39 71.3419C698.39 73.2459 697.142 74.2699 695.862 74.4779L698.47 78.6699ZM694.646 73.0379C695.702 73.0379 696.47 72.3659 696.47 71.3419C696.47 70.3179 695.702 69.6459 694.646 69.6459H692.086V73.0379H694.646ZM703.297 78.8619C700.977 78.8619 699.249 77.2459 699.249 74.7979C699.249 72.5579 700.881 70.7499 703.169 70.7499C705.489 70.7499 706.977 72.5259 706.977 74.9579V75.3579H701.009C701.137 76.5259 702.017 77.4859 703.473 77.4859C704.225 77.4859 705.121 77.1819 705.665 76.6379L706.433 77.7419C705.665 78.4779 704.529 78.8619 703.297 78.8619ZM705.345 74.1739C705.313 73.2619 704.689 72.1259 703.169 72.1259C701.729 72.1259 701.073 73.2299 700.993 74.1739H705.345ZM712.475 78.6699H710.667L707.515 70.9419H709.307L711.563 76.7339L713.819 70.9419H715.627L712.475 78.6699ZM717.514 69.9979C716.954 69.9979 716.474 69.5339 716.474 68.9579C716.474 68.3819 716.954 67.9179 717.514 67.9179C718.09 67.9179 718.554 68.3819 718.554 68.9579C718.554 69.5339 718.09 69.9979 717.514 69.9979ZM718.362 78.6699H716.682V70.9419H718.362V78.6699ZM724.109 78.8619C721.789 78.8619 720.061 77.2459 720.061 74.7979C720.061 72.5579 721.693 70.7499 723.981 70.7499C726.301 70.7499 727.789 72.5259 727.789 74.9579V75.3579H721.821C721.949 76.5259 722.829 77.4859 724.285 77.4859C725.037 77.4859 725.933 77.1819 726.477 76.6379L727.245 77.7419C726.477 78.4779 725.341 78.8619 724.109 78.8619ZM726.157 74.1739C726.125 73.2619 725.501 72.1259 723.981 72.1259C722.541 72.1259 721.885 73.2299 721.805 74.1739H726.157ZM737.943 78.6699H736.183L734.391 73.0059L732.599 78.6699H730.839L728.439 70.9419H730.183L731.815 76.5579L733.655 70.9419H735.127L736.967 76.5579L738.599 70.9419H740.343L737.943 78.6699Z" fill="#1504AE"/>
<circle cx="714.75" cy="98.6699" r="3" fill="#F1F3FF" stroke="#1504AE" stroke-width="2"/>
<rect width="86" height="25" transform="translate(936.25 61.6699)" fill="#F1F3FF"/>
<path d="M971.033 78.6699H968.905L968.121 76.6219H963.225L962.441 78.6699H960.313L964.505 67.9979H966.841L971.033 78.6699ZM967.593 74.9739L965.673 69.8859L963.753 74.9739H967.593ZM978.843 78.6699H977.163V77.6459C976.603 78.2699 975.643 78.8619 974.427 78.8619C972.763 78.8619 971.947 77.9979 971.947 76.4139V70.9419H973.627V75.8059C973.627 77.0059 974.235 77.3739 975.179 77.3739C976.027 77.3739 976.763 76.8939 977.163 76.3659V70.9419H978.843V78.6699ZM988.146 78.6699H986.466V77.6139C985.874 78.3819 984.978 78.8619 983.986 78.8619C982.002 78.8619 980.546 77.3579 980.546 74.8139C980.546 72.3179 981.986 70.7499 983.986 70.7499C984.946 70.7499 985.842 71.1979 986.466 72.0139V67.9979H988.146V78.6699ZM984.466 77.3739C985.266 77.3739 986.082 76.9259 986.466 76.3499V73.2779C986.082 72.7019 985.266 72.2379 984.466 72.2379C983.138 72.2379 982.289 73.3099 982.289 74.8139C982.289 76.3019 983.138 77.3739 984.466 77.3739ZM991.154 69.9979C990.594 69.9979 990.114 69.5339 990.114 68.9579C990.114 68.3819 990.594 67.9179 991.154 67.9179C991.73 67.9179 992.194 68.3819 992.194 68.9579C992.194 69.5339 991.73 69.9979 991.154 69.9979ZM992.002 78.6699H990.322V70.9419H992.002V78.6699ZM996.502 78.8619C995.206 78.8619 994.518 78.1579 994.518 76.8779V72.4139H993.238V70.9419H994.518V68.8299H996.198V70.9419H997.766V72.4139H996.198V76.4619C996.198 76.9899 996.454 77.3739 996.934 77.3739C997.254 77.3739 997.558 77.2459 997.686 77.1019L998.086 78.3659C997.782 78.6539 997.286 78.8619 996.502 78.8619Z" fill="#1504AE"/>
<circle cx="979.25" cy="98.6699" r="3" fill="#F1F3FF" stroke="#1504AE" stroke-width="2"/>
<rect width="101" height="25" transform="translate(135.25 242.67)" fill="#FFFAC6"/>
<path d="M164.604 259.67H160.636V248.998H164.604C167.932 248.998 170.188 251.206 170.188 254.342C170.188 257.478 167.932 259.67 164.604 259.67ZM164.604 258.022C166.924 258.022 168.268 256.358 168.268 254.342C168.268 252.278 166.988 250.646 164.604 250.646H162.508V258.022H164.604ZM172.779 250.998C172.219 250.998 171.739 250.534 171.739 249.958C171.739 249.382 172.219 248.918 172.779 248.918C173.355 248.918 173.819 249.382 173.819 249.958C173.819 250.534 173.355 250.998 172.779 250.998ZM173.627 259.67H171.947V251.942H173.627V259.67ZM178.447 259.862C177.135 259.862 175.935 259.446 175.135 258.662L175.903 257.446C176.447 258.006 177.519 258.534 178.527 258.534C179.535 258.534 180.047 258.102 180.047 257.494C180.047 255.974 175.375 257.062 175.375 254.102C175.375 252.838 176.463 251.75 178.415 251.75C179.727 251.75 180.719 252.214 181.423 252.838L180.719 254.022C180.255 253.494 179.391 253.094 178.431 253.094C177.551 253.094 176.991 253.494 176.991 254.038C176.991 255.414 181.663 254.39 181.663 257.462C181.663 258.822 180.527 259.862 178.447 259.862ZM187.514 259.862C186.538 259.862 185.658 259.43 185.034 258.598V262.614H183.354V251.942H185.034V252.998C185.61 252.23 186.506 251.75 187.514 251.75C189.514 251.75 190.938 253.254 190.938 255.798C190.938 258.342 189.514 259.862 187.514 259.862ZM187.018 258.374C188.346 258.374 189.194 257.302 189.194 255.798C189.194 254.31 188.346 253.238 187.018 253.238C186.234 253.238 185.402 253.702 185.034 254.278V257.334C185.402 257.894 186.234 258.374 187.018 258.374ZM194.284 259.67H192.604V248.998H194.284V259.67ZM202.863 259.67H201.183V258.838C200.607 259.494 199.711 259.862 198.687 259.862C197.423 259.862 195.999 259.014 195.999 257.302C195.999 255.526 197.423 254.79 198.687 254.79C199.727 254.79 200.623 255.126 201.183 255.782V254.63C201.183 253.734 200.447 253.19 199.375 253.19C198.511 253.19 197.759 253.51 197.087 254.166L196.399 252.998C197.295 252.15 198.415 251.75 199.647 251.75C201.359 251.75 202.863 252.47 202.863 254.55V259.67ZM199.343 258.71C200.079 258.71 200.799 258.438 201.183 257.91V256.742C200.799 256.214 200.079 255.942 199.343 255.942C198.399 255.942 197.695 256.486 197.695 257.334C197.695 258.166 198.399 258.71 199.343 258.71ZM204.705 262.694L204.961 261.19C205.137 261.27 205.409 261.318 205.601 261.318C206.129 261.318 206.481 261.158 206.705 260.646L207.089 259.766L203.921 251.942H205.713L207.969 257.734L210.225 251.942H212.033L208.305 261.062C207.777 262.374 206.849 262.79 205.649 262.806C205.409 262.806 204.945 262.758 204.705 262.694Z" fill="#7A3F0D"/>
<circle cx="185.75" cy="279.67" r="3" fill="#FFFAC6" stroke="#7A3F0D" stroke-width="2"/>
<rect width="101" height="25" transform="translate(399.75 242.67)" fill="#F1F3FF"/>
<path d="M427.024 259.67H425.152V248.998H429.84C432.08 248.998 433.328 250.534 433.328 252.342C433.328 254.15 432.064 255.686 429.84 255.686H427.024V259.67ZM429.584 254.038C430.64 254.038 431.408 253.366 431.408 252.342C431.408 251.318 430.64 250.646 429.584 250.646H427.024V254.038H429.584ZM441.734 259.67H440.054V258.646C439.494 259.27 438.534 259.862 437.318 259.862C435.654 259.862 434.838 258.998 434.838 257.414V251.942H436.518V256.806C436.518 258.006 437.126 258.374 438.07 258.374C438.918 258.374 439.654 257.894 440.054 257.366V251.942H441.734V259.67ZM445.596 257.35C445.964 257.926 446.796 258.374 447.58 258.374C448.924 258.374 449.772 257.318 449.772 255.814C449.772 254.31 448.924 253.238 447.58 253.238C446.796 253.238 445.964 253.718 445.596 254.294V257.35ZM445.596 259.67H443.916V248.998H445.596V253.014C446.204 252.198 447.1 251.75 448.076 251.75C450.06 251.75 451.5 253.318 451.5 255.814C451.5 258.358 450.044 259.862 448.076 259.862C447.068 259.862 446.188 259.382 445.596 258.614V259.67ZM454.893 259.67H453.213V248.998H454.893V259.67ZM457.904 250.998C457.344 250.998 456.864 250.534 456.864 249.958C456.864 249.382 457.344 248.918 457.904 248.918C458.48 248.918 458.944 249.382 458.944 249.958C458.944 250.534 458.48 250.998 457.904 250.998ZM458.752 259.67H457.072V251.942H458.752V259.67ZM463.572 259.862C462.26 259.862 461.06 259.446 460.26 258.662L461.028 257.446C461.572 258.006 462.644 258.534 463.652 258.534C464.66 258.534 465.172 258.102 465.172 257.494C465.172 255.974 460.5 257.062 460.5 254.102C460.5 252.838 461.588 251.75 463.54 251.75C464.852 251.75 465.844 252.214 466.548 252.838L465.844 254.022C465.38 253.494 464.516 253.094 463.556 253.094C462.676 253.094 462.116 253.494 462.116 254.038C462.116 255.414 466.788 254.39 466.788 257.462C466.788 258.822 465.652 259.862 463.572 259.862ZM475.391 259.67H473.711V254.806C473.711 253.606 473.087 253.238 472.143 253.238C471.295 253.238 470.559 253.75 470.159 254.278V259.67H468.479V248.998H470.159V252.998C470.671 252.39 471.679 251.75 472.895 251.75C474.559 251.75 475.391 252.614 475.391 254.198V259.67Z" fill="#1504AE"/>
<circle cx="450.25" cy="279.67" r="3" fill="#F1F3FF" stroke="#1504AE" stroke-width="2"/>
<rect width="105" height="25" transform="translate(662.25 242.67)" fill="#F1F3FF"/>
<path d="M692.6 259.862C689.448 259.862 687 257.622 687 254.342C687 251.062 689.448 248.822 692.6 248.822C694.76 248.822 696.088 249.942 696.888 251.222L695.288 252.038C694.776 251.158 693.752 250.486 692.6 250.486C690.488 250.486 688.92 252.102 688.92 254.342C688.92 256.582 690.488 258.198 692.6 258.198C693.752 258.198 694.776 257.542 695.288 256.646L696.888 257.462C696.072 258.742 694.76 259.862 692.6 259.862ZM701.826 259.862C699.378 259.862 697.858 258.022 697.858 255.798C697.858 253.59 699.378 251.75 701.826 251.75C704.306 251.75 705.81 253.59 705.81 255.798C705.81 258.022 704.306 259.862 701.826 259.862ZM701.826 258.374C703.266 258.374 704.066 257.174 704.066 255.798C704.066 254.438 703.266 253.238 701.826 253.238C700.402 253.238 699.602 254.438 699.602 255.798C699.602 257.174 700.402 258.374 701.826 258.374ZM714.406 259.67H712.726V254.838C712.726 253.638 712.118 253.238 711.174 253.238C710.31 253.238 709.574 253.75 709.19 254.278V259.67H707.51V251.942H709.19V252.998C709.702 252.39 710.694 251.75 711.91 251.75C713.574 251.75 714.406 252.646 714.406 254.23V259.67ZM718.668 259.67H716.988V253.414H715.708V251.942H716.988V251.51C716.988 249.782 718.012 248.838 719.436 248.838C719.964 248.838 720.444 248.95 720.78 249.142L720.412 250.39C720.252 250.278 720.028 250.214 719.74 250.214C719.084 250.214 718.668 250.646 718.668 251.51V251.942H720.236V253.414H718.668V259.67ZM722.348 250.998C721.788 250.998 721.308 250.534 721.308 249.958C721.308 249.382 721.788 248.918 722.348 248.918C722.924 248.918 723.388 249.382 723.388 249.958C723.388 250.534 722.924 250.998 722.348 250.998ZM723.196 259.67H721.516V251.942H723.196V259.67ZM727.049 259.67H725.369V251.942H727.049V253.078C727.625 252.342 728.553 251.766 729.561 251.766V253.43C729.417 253.398 729.241 253.382 729.033 253.382C728.329 253.382 727.385 253.862 727.049 254.406V259.67ZM742.068 259.67H740.388V254.63C740.388 253.798 740.02 253.238 739.124 253.238C738.372 253.238 737.668 253.766 737.332 254.262V259.67H735.652V254.63C735.652 253.798 735.284 253.238 734.372 253.238C733.636 253.238 732.948 253.766 732.596 254.278V259.67H730.916V251.942H732.596V252.998C732.916 252.518 733.94 251.75 735.108 251.75C736.26 251.75 736.964 252.326 737.22 253.174C737.668 252.47 738.692 251.75 739.844 251.75C741.268 251.75 742.068 252.518 742.068 254.086V259.67Z" fill="#1504AE"/>
<circle cx="714.75" cy="279.67" r="3" fill="#F1F3FF" stroke="#1504AE" stroke-width="2"/>
<rect width="75" height="25" transform="translate(941.75 242.67)" fill="#FFFAC6"/>
<path d="M969.235 259.67H967.363V248.998H972.051C974.291 248.998 975.539 250.534 975.539 252.342C975.539 254.15 974.275 255.686 972.051 255.686H969.235V259.67ZM971.795 254.038C972.851 254.038 973.619 253.366 973.619 252.342C973.619 251.318 972.851 250.646 971.795 250.646H969.235V254.038H971.795ZM983.136 259.67H981.456V258.838C980.88 259.494 979.984 259.862 978.96 259.862C977.696 259.862 976.272 259.014 976.272 257.302C976.272 255.526 977.696 254.79 978.96 254.79C980 254.79 980.896 255.126 981.456 255.782V254.63C981.456 253.734 980.72 253.19 979.648 253.19C978.784 253.19 978.032 253.51 977.36 254.166L976.672 252.998C977.568 252.15 978.688 251.75 979.92 251.75C981.632 251.75 983.136 252.47 983.136 254.55V259.67ZM979.616 258.71C980.352 258.71 981.072 258.438 981.456 257.91V256.742C981.072 256.214 980.352 255.942 979.616 255.942C978.672 255.942 977.968 256.486 977.968 257.334C977.968 258.166 978.672 258.71 979.616 258.71ZM984.979 262.694L985.235 261.19C985.411 261.27 985.683 261.318 985.875 261.318C986.403 261.318 986.755 261.158 986.979 260.646L987.363 259.766L984.195 251.942H985.987L988.243 257.734L990.499 251.942H992.307L988.579 261.062C988.051 262.374 987.123 262.79 985.923 262.806C985.683 262.806 985.219 262.758 984.979 262.694Z" fill="#7A3F0D"/>
<circle cx="979.25" cy="279.67" r="3" fill="#FFFAC6" stroke="#7A3F0D" stroke-width="2"/>
<rect width="109" height="25" transform="translate(533 423.67)" fill="#EDFCF3"/>
<path d="M560.024 440.67H558.152V429.998H562.84C565.08 429.998 566.328 431.534 566.328 433.342C566.328 435.15 565.064 436.686 562.84 436.686H560.024V440.67ZM562.584 435.038C563.64 435.038 564.408 434.366 564.408 433.342C564.408 432.318 563.64 431.646 562.584 431.646H560.024V435.038H562.584ZM569.518 440.67H567.838V432.942H569.518V434.078C570.094 433.342 571.022 432.766 572.03 432.766V434.43C571.886 434.398 571.71 434.382 571.502 434.382C570.798 434.382 569.854 434.862 569.518 435.406V440.67ZM576.873 440.862C574.425 440.862 572.905 439.022 572.905 436.798C572.905 434.59 574.425 432.75 576.873 432.75C579.353 432.75 580.857 434.59 580.857 436.798C580.857 439.022 579.353 440.862 576.873 440.862ZM576.873 439.374C578.313 439.374 579.113 438.174 579.113 436.798C579.113 435.438 578.313 434.238 576.873 434.238C575.449 434.238 574.649 435.438 574.649 436.798C574.649 438.174 575.449 439.374 576.873 439.374ZM593.709 440.67H592.029V435.63C592.029 434.798 591.661 434.238 590.765 434.238C590.013 434.238 589.309 434.766 588.973 435.262V440.67H587.293V435.63C587.293 434.798 586.925 434.238 586.013 434.238C585.277 434.238 584.589 434.766 584.237 435.278V440.67H582.557V432.942H584.237V433.998C584.557 433.518 585.581 432.75 586.749 432.75C587.901 432.75 588.605 433.326 588.861 434.174C589.309 433.47 590.333 432.75 591.485 432.75C592.909 432.75 593.709 433.518 593.709 435.086V440.67ZM599.373 440.862C596.925 440.862 595.405 439.022 595.405 436.798C595.405 434.59 596.925 432.75 599.373 432.75C601.853 432.75 603.357 434.59 603.357 436.798C603.357 439.022 601.853 440.862 599.373 440.862ZM599.373 439.374C600.813 439.374 601.613 438.174 601.613 436.798C601.613 435.438 600.813 434.238 599.373 434.238C597.949 434.238 597.149 435.438 597.149 436.798C597.149 438.174 597.949 439.374 599.373 439.374ZM607.377 440.862C606.081 440.862 605.393 440.158 605.393 438.878V434.414H604.113V432.942H605.393V430.83H607.073V432.942H608.641V434.414H607.073V438.462C607.073 438.99 607.329 439.374 607.809 439.374C608.129 439.374 608.433 439.246 608.561 439.102L608.961 440.366C608.657 440.654 608.161 440.862 607.377 440.862ZM613.734 440.862C611.414 440.862 609.686 439.246 609.686 436.798C609.686 434.558 611.318 432.75 613.606 432.75C615.926 432.75 617.414 434.526 617.414 436.958V437.358H611.446C611.574 438.526 612.454 439.486 613.91 439.486C614.662 439.486 615.558 439.182 616.102 438.638L616.87 439.742C616.102 440.478 614.966 440.862 613.734 440.862ZM615.782 436.174C615.75 435.262 615.126 434.126 613.606 434.126C612.166 434.126 611.51 435.23 611.43 436.174H615.782Z" fill="#094B31"/>
<circle cx="587.5" cy="460.67" r="3" fill="#EDFCF3" stroke="#094B31" stroke-width="2"/>
</svg>
