<svg width="117" height="56" viewBox="0 0 117 56" fill="none" xmlns="http://www.w3.org/2000/svg">
<path d="M10.3379 36.9985H10.9666V38.8315H13.3571V36.9985H13.9859V41.3806H13.3571V39.3965H10.9666V41.3806H10.3379V36.9985Z" fill="black"/>
<path d="M18.3708 41.4921C18.0565 41.4921 17.7639 41.433 17.4932 41.3148C17.2225 41.1921 16.9867 41.0279 16.7859 40.822C16.585 40.6118 16.4278 40.3665 16.3143 40.0862C16.2008 39.8059 16.144 39.5059 16.144 39.1861C16.144 38.8664 16.2008 38.5686 16.3143 38.2927C16.4278 38.0123 16.5828 37.7693 16.7793 37.5634C16.9802 37.3532 17.216 37.1889 17.4867 37.0707C17.7617 36.948 18.0565 36.8867 18.3708 36.8867C18.6852 36.8867 18.9777 36.948 19.2484 37.0707C19.5235 37.1889 19.7615 37.3532 19.9623 37.5634C20.1632 37.7693 20.3203 38.0123 20.4339 38.2927C20.5474 38.5686 20.6041 38.8664 20.6041 39.1861C20.6041 39.5059 20.5474 39.8059 20.4339 40.0862C20.3203 40.3665 20.1632 40.6118 19.9623 40.822C19.7615 41.0279 19.5235 41.1921 19.2484 41.3148C18.9777 41.433 18.6852 41.4921 18.3708 41.4921ZM18.3708 40.9009C18.611 40.9009 18.8271 40.8549 19.0192 40.7629C19.2157 40.6709 19.3816 40.5461 19.517 40.3884C19.6567 40.2307 19.7636 40.049 19.8379 39.8431C19.9121 39.6329 19.9492 39.4117 19.9492 39.1796C19.9492 38.9431 19.9121 38.7219 19.8379 38.516C19.7636 38.3058 19.6567 38.1218 19.517 37.9642C19.3816 37.8065 19.2157 37.6839 19.0192 37.5963C18.8271 37.5043 18.611 37.4583 18.3708 37.4583C18.1307 37.4583 17.9145 37.5043 17.7224 37.5963C17.5303 37.6839 17.3644 37.8065 17.2247 37.9642C17.0893 38.1218 16.9845 38.3058 16.9103 38.516C16.8361 38.7219 16.799 38.9431 16.799 39.1796C16.799 39.4117 16.8361 39.6329 16.9103 39.8431C16.9845 40.049 17.0893 40.2307 17.2247 40.3884C17.3644 40.5461 17.5303 40.6709 17.7224 40.7629C17.9145 40.8549 18.1307 40.9009 18.3708 40.9009Z" fill="black"/>
<path d="M22.7627 36.9985H23.398L25.7819 40.4214V36.9985H26.3976V41.3806H25.7688L23.3783 37.9512V41.3806H22.7627V36.9985Z" fill="black"/>
<path d="M30.9658 39.1536H32.4984V40.9011C32.4154 40.9756 32.3194 41.0479 32.2102 41.1179C32.1054 41.188 31.981 41.2515 31.8369 41.3085C31.6972 41.361 31.54 41.4026 31.3653 41.4333C31.1907 41.4683 30.9942 41.4858 30.7759 41.4858C30.4353 41.4858 30.1275 41.4289 29.8524 41.315C29.5817 41.1968 29.3481 41.0369 29.1517 40.8354C28.9595 40.6296 28.8111 40.3887 28.7063 40.1128C28.6059 39.8324 28.5557 39.528 28.5557 39.1996C28.5557 38.8798 28.6081 38.5798 28.7128 38.2995C28.822 38.0192 28.9726 37.7761 29.1648 37.5702C29.3569 37.36 29.5861 37.1958 29.8524 37.0775C30.1231 36.9549 30.4222 36.8936 30.7497 36.8936C30.9811 36.8936 31.1885 36.922 31.3719 36.979C31.5553 37.0315 31.7146 37.1016 31.85 37.1892C31.9897 37.2724 32.1076 37.3644 32.2037 37.4651C32.2997 37.5659 32.3805 37.6622 32.446 37.7542L32.0006 38.1352C31.9482 38.0608 31.8849 37.9841 31.8107 37.9053C31.7365 37.8221 31.6491 37.7476 31.5487 37.6819C31.4483 37.6162 31.3326 37.5615 31.2016 37.5177C31.075 37.4739 30.9287 37.452 30.7628 37.452C30.5227 37.452 30.3065 37.498 30.1144 37.59C29.9223 37.6819 29.7586 37.8068 29.6232 37.9644C29.4922 38.1221 29.3896 38.3082 29.3154 38.5229C29.2455 38.7331 29.2106 38.9565 29.2106 39.193C29.2106 39.447 29.2499 39.6791 29.3285 39.8894C29.4071 40.0996 29.5162 40.2814 29.656 40.4347C29.8 40.5836 29.9681 40.7018 30.1603 40.7894C30.3524 40.8727 30.5641 40.9143 30.7955 40.9143C31.0488 40.9143 31.2627 40.8858 31.4374 40.8289C31.6164 40.7719 31.7692 40.6931 31.8958 40.5923V39.6989H30.9658V39.1536Z" fill="black"/>
<path d="M37.3198 36.9985H37.942V38.9892L39.7693 36.9985H40.4897L38.8655 38.7855L40.6862 41.3806H39.933L38.4398 39.2323L37.942 39.771V41.3806H37.3198V36.9985Z" fill="black"/>
<path d="M44.3313 41.4921C44.0169 41.4921 43.7244 41.433 43.4537 41.3148C43.183 41.1921 42.9472 41.0279 42.7463 40.822C42.5455 40.6118 42.3883 40.3665 42.2748 40.0862C42.1613 39.8059 42.1045 39.5059 42.1045 39.1861C42.1045 38.8664 42.1613 38.5686 42.2748 38.2927C42.3883 38.0123 42.5433 37.7693 42.7398 37.5634C42.9406 37.3532 43.1764 37.1889 43.4471 37.0707C43.7222 36.948 44.0169 36.8867 44.3313 36.8867C44.6456 36.8867 44.9382 36.948 45.2089 37.0707C45.484 37.1889 45.7219 37.3532 45.9228 37.5634C46.1236 37.7693 46.2808 38.0123 46.3943 38.2927C46.5078 38.5686 46.5646 38.8664 46.5646 39.1861C46.5646 39.5059 46.5078 39.8059 46.3943 40.0862C46.2808 40.3665 46.1236 40.6118 45.9228 40.822C45.7219 41.0279 45.484 41.1921 45.2089 41.3148C44.9382 41.433 44.6456 41.4921 44.3313 41.4921ZM44.3313 40.9009C44.5714 40.9009 44.7875 40.8549 44.9797 40.7629C45.1761 40.6709 45.3421 40.5461 45.4774 40.3884C45.6171 40.2307 45.7241 40.049 45.7983 39.8431C45.8726 39.6329 45.9097 39.4117 45.9097 39.1796C45.9097 38.9431 45.8726 38.7219 45.7983 38.516C45.7241 38.3058 45.6171 38.1218 45.4774 37.9642C45.3421 37.8065 45.1761 37.6839 44.9797 37.5963C44.7875 37.5043 44.5714 37.4583 44.3313 37.4583C44.0911 37.4583 43.875 37.5043 43.6829 37.5963C43.4908 37.6839 43.3249 37.8065 43.1851 37.9642C43.0498 38.1218 42.945 38.3058 42.8708 38.516C42.7965 38.7219 42.7594 38.9431 42.7594 39.1796C42.7594 39.4117 42.7965 39.6329 42.8708 39.8431C42.945 40.049 43.0498 40.2307 43.1851 40.3884C43.3249 40.5461 43.4908 40.6709 43.6829 40.7629C43.875 40.8549 44.0911 40.9009 44.3313 40.9009Z" fill="black"/>
<path d="M48.7227 36.9985H49.3579L51.7419 40.4214V36.9985H52.3575V41.3806H51.7288L49.3383 37.9512V41.3806H48.7227V36.9985Z" fill="black"/>
<path d="M56.9263 39.1536H58.4588V40.9011C58.3759 40.9756 58.2798 41.0479 58.1707 41.1179C58.0659 41.188 57.9414 41.2515 57.7973 41.3085C57.6576 41.361 57.5004 41.4026 57.3258 41.4333C57.1511 41.4683 56.9547 41.4858 56.7363 41.4858C56.3958 41.4858 56.088 41.4289 55.8129 41.315C55.5422 41.1968 55.3086 41.0369 55.1121 40.8354C54.92 40.6296 54.7715 40.3887 54.6667 40.1128C54.5663 39.8324 54.5161 39.528 54.5161 39.1996C54.5161 38.8798 54.5685 38.5798 54.6733 38.2995C54.7825 38.0192 54.9331 37.7761 55.1252 37.5702C55.3173 37.36 55.5465 37.1958 55.8129 37.0775C56.0836 36.9549 56.3827 36.8936 56.7101 36.8936C56.9416 36.8936 57.149 36.922 57.3323 36.979C57.5157 37.0315 57.6751 37.1016 57.8104 37.1892C57.9502 37.2724 58.068 37.3644 58.1641 37.4651C58.2602 37.5659 58.3409 37.6622 58.4064 37.7542L57.9611 38.1352C57.9087 38.0608 57.8454 37.9841 57.7711 37.9053C57.6969 37.8221 57.6096 37.7476 57.5092 37.6819C57.4087 37.6162 57.293 37.5615 57.1621 37.5177C57.0354 37.4739 56.8892 37.452 56.7232 37.452C56.4831 37.452 56.267 37.498 56.0749 37.59C55.8827 37.6819 55.719 37.8068 55.5837 37.9644C55.4527 38.1221 55.3501 38.3082 55.2758 38.5229C55.206 38.7331 55.171 38.9565 55.171 39.193C55.171 39.447 55.2103 39.6791 55.2889 39.8894C55.3675 40.0996 55.4767 40.2814 55.6164 40.4347C55.7605 40.5836 55.9286 40.7018 56.1207 40.7894C56.3128 40.8727 56.5246 40.9143 56.756 40.9143C57.0092 40.9143 57.2232 40.8858 57.3978 40.8289C57.5768 40.7719 57.7297 40.6931 57.8563 40.5923V39.6989H56.9263V39.1536Z" fill="black"/>
<path d="M65.403 41.4921C65.0887 41.4921 64.7961 41.433 64.5254 41.3148C64.2547 41.1921 64.019 41.0279 63.8181 40.822C63.6173 40.6118 63.4601 40.3665 63.3466 40.0862C63.233 39.8059 63.1763 39.5059 63.1763 39.1861C63.1763 38.8664 63.233 38.5686 63.3466 38.2927C63.4601 38.0123 63.6151 37.7693 63.8116 37.5634C64.0124 37.3532 64.2482 37.1889 64.5189 37.0707C64.794 36.948 65.0887 36.8867 65.403 36.8867C65.7174 36.8867 66.01 36.948 66.2807 37.0707C66.5557 37.1889 66.7937 37.3532 66.9945 37.5634C67.1954 37.7693 67.3526 38.0123 67.4661 38.2927C67.5796 38.5686 67.6364 38.8664 67.6364 39.1861C67.6364 39.5059 67.5796 39.8059 67.4661 40.0862C67.3526 40.3665 67.1954 40.6118 66.9945 40.822C66.7937 41.0279 66.5557 41.1921 66.2807 41.3148C66.01 41.433 65.7174 41.4921 65.403 41.4921ZM65.403 40.9009C65.6432 40.9009 65.8593 40.8549 66.0514 40.7629C66.2479 40.6709 66.4138 40.5461 66.5492 40.3884C66.6889 40.2307 66.7959 40.049 66.8701 39.8431C66.9443 39.6329 66.9814 39.4117 66.9814 39.1796C66.9814 38.9431 66.9443 38.7219 66.8701 38.516C66.7959 38.3058 66.6889 38.1218 66.5492 37.9642C66.4138 37.8065 66.2479 37.6839 66.0514 37.5963C65.8593 37.5043 65.6432 37.4583 65.403 37.4583C65.1629 37.4583 64.9468 37.5043 64.7547 37.5963C64.5625 37.6839 64.3966 37.8065 64.2569 37.9642C64.1216 38.1218 64.0168 38.3058 63.9425 38.516C63.8683 38.7219 63.8312 38.9431 63.8312 39.1796C63.8312 39.4117 63.8683 39.6329 63.9425 39.8431C64.0168 40.049 64.1216 40.2307 64.2569 40.3884C64.3966 40.5461 64.5625 40.6709 64.7547 40.7629C64.9468 40.8549 65.1629 40.9009 65.403 40.9009Z" fill="black"/>
<path d="M73.508 40.6121C73.46 40.6909 73.3857 40.7807 73.2853 40.8814C73.1849 40.9822 73.0626 41.0785 72.9185 41.1705C72.7745 41.2581 72.6085 41.3325 72.4208 41.3939C72.233 41.4552 72.0257 41.4858 71.7986 41.4858C71.4755 41.4858 71.1808 41.4289 70.9144 41.315C70.6481 41.2012 70.4189 41.0435 70.2268 40.842C70.0347 40.6361 69.884 40.3953 69.7749 40.1193C69.6701 39.839 69.6177 39.5346 69.6177 39.2061C69.6177 38.8864 69.6701 38.5864 69.7749 38.3061C69.884 38.0258 70.0347 37.7805 70.2268 37.5702C70.4189 37.36 70.6481 37.1958 70.9144 37.0775C71.1852 36.9549 71.4842 36.8936 71.8117 36.8936C72.0431 36.8936 72.2505 36.922 72.4339 36.979C72.6173 37.0359 72.7766 37.1082 72.912 37.1958C73.0517 37.279 73.1696 37.371 73.2657 37.4717C73.3661 37.5724 73.4469 37.6688 73.508 37.7608L73.0626 38.1418C73.0102 38.0674 72.9469 37.9907 72.8727 37.9119C72.8028 37.8287 72.7177 37.7542 72.6173 37.6885C72.5169 37.6228 72.4012 37.5681 72.2702 37.5243C72.1392 37.4805 71.9885 37.4586 71.8183 37.4586C71.5781 37.4586 71.362 37.5045 71.1699 37.5965C70.9821 37.6885 70.8206 37.8133 70.6852 37.971C70.5542 38.1287 70.4538 38.3126 70.3839 38.5229C70.3141 38.7331 70.2792 38.9565 70.2792 39.193C70.2792 39.4295 70.3141 39.6529 70.3839 39.8631C70.4582 40.069 70.5608 40.2485 70.6918 40.4018C70.8228 40.5551 70.9821 40.6756 71.1699 40.7632C71.3576 40.8508 71.5672 40.8946 71.7986 40.8946C71.9951 40.8946 72.1632 40.8705 72.3029 40.8223C72.447 40.7697 72.5671 40.7084 72.6631 40.6383C72.7635 40.5683 72.8443 40.4982 72.9055 40.4281C72.9709 40.3536 73.0255 40.2923 73.0692 40.2442L73.508 40.6121Z" fill="black"/>
<path d="M75.5752 36.9985H78.3259V37.557H76.2039V38.8315H77.802V39.3965H76.2039V40.8156H78.4831V41.3806H75.5752V36.9985Z" fill="black"/>
<path d="M81.8988 36.9985H82.5407L84.25 41.3806H83.5493L83.0974 40.1586H81.3028L80.8509 41.3806H80.1895L81.8988 36.9985ZM82.9074 39.6265L82.2001 37.7015L81.4862 39.6265H82.9074Z" fill="black"/>
<path d="M86.166 36.9985H86.8013L89.1853 40.4214V36.9985H89.8009V41.3806H89.1722L86.7817 37.9512V41.3806H86.166V36.9985Z" fill="black"/>
<path d="M94.6616 36.9985H96.0435C96.3404 36.9985 96.5849 37.0401 96.7771 37.1234C96.9735 37.2066 97.1285 37.3117 97.2421 37.4387C97.36 37.5657 97.4407 37.7081 97.4844 37.8657C97.5324 38.0234 97.5564 38.1767 97.5564 38.3256C97.5564 38.5446 97.5193 38.7373 97.4451 38.9038C97.3709 39.0702 97.2683 39.2104 97.1373 39.3242C97.0063 39.4337 96.8491 39.517 96.6657 39.5739C96.4867 39.6308 96.2902 39.6593 96.0763 39.6593H95.2838V41.3806H94.6616V36.9985ZM96.0697 39.1206C96.3404 39.1206 96.5478 39.0527 96.6919 38.9169C96.8404 38.7768 96.9146 38.584 96.9146 38.3388C96.9146 38.0891 96.8382 37.8942 96.6854 37.7541C96.5369 37.6095 96.3317 37.5373 96.0697 37.5373H95.2838V39.1206H96.0697Z" fill="black"/>
<path d="M100.474 36.9985H101.116L102.825 41.3806H102.124L101.673 40.1586H99.878L99.4261 41.3806H98.7646L100.474 36.9985ZM101.483 39.6265L100.775 37.7015L100.061 39.6265H101.483Z" fill="black"/>
<path d="M104.742 36.9985H106.137C106.416 36.9985 106.652 37.038 106.844 37.1168C107.036 37.1912 107.191 37.2898 107.309 37.4124C107.431 37.5307 107.519 37.6665 107.571 37.8198C107.628 37.9731 107.656 38.1285 107.656 38.2862C107.656 38.5665 107.591 38.814 107.46 39.0286C107.329 39.2432 107.126 39.4031 106.851 39.5082L107.872 41.3806H107.165L106.228 39.587H105.351V41.3806H104.742V36.9985ZM106.189 39.0549C106.464 39.0549 106.669 38.987 106.805 38.8512C106.944 38.7154 107.014 38.5337 107.014 38.3059C107.014 38.065 106.94 37.8789 106.792 37.7475C106.643 37.6117 106.438 37.5438 106.176 37.5438H105.351V39.0549H106.189Z" fill="black"/>
<path d="M109.945 36.9985H110.567V38.9892L112.395 36.9985H113.115L111.491 38.7855L113.312 41.3806H112.559L111.065 39.2323L110.567 39.771V41.3806H109.945V36.9985Z" fill="black"/>
<path d="M10.4514 29.1465H11.2165L12.4262 31.2127L13.6162 29.1465H14.3813L14.5905 33.5215H13.7862L13.6424 30.4911L12.5962 32.2753H12.2104L11.1576 30.5371L11.0138 33.5215H10.2422L10.4514 29.1465Z" fill="black"/>
<path d="M18.0542 29.1465H18.9043L20.5586 33.5215H19.6432L19.2639 32.413H17.6423L17.263 33.5215H16.3999L18.0542 29.1465ZM19.0285 31.7308L18.4531 30.032L17.8711 31.7308H19.0285Z" fill="black"/>
<path d="M22.4209 29.1465H23.866C24.1406 29.1465 24.3738 29.188 24.5656 29.2711C24.7574 29.3542 24.9122 29.4613 25.0299 29.5925C25.1476 29.7193 25.2326 29.8593 25.2849 30.0123C25.3416 30.1654 25.3699 30.3118 25.3699 30.4518C25.3699 30.7273 25.3089 30.9721 25.1868 31.1864C25.0691 31.3963 24.886 31.5647 24.6376 31.6915L25.6446 33.5215H24.716L23.8333 31.7964H23.2121V33.5215H22.4209V29.1465ZM23.8725 31.1143C24.0818 31.1143 24.2431 31.053 24.3564 30.9306C24.4741 30.8082 24.5329 30.6595 24.5329 30.4846C24.5329 30.2965 24.4719 30.1435 24.3499 30.0254C24.2278 29.9074 24.0687 29.8483 23.8725 29.8483H23.2121V31.1143H23.8725Z" fill="black"/>
<path d="M27.5981 29.1465H29.0432C29.3179 29.1465 29.5511 29.188 29.7429 29.2711C29.9347 29.3542 30.0894 29.4613 30.2071 29.5925C30.3248 29.7193 30.4099 29.8593 30.4622 30.0123C30.5188 30.1654 30.5472 30.3118 30.5472 30.4518C30.5472 30.7273 30.4861 30.9721 30.3641 31.1864C30.2464 31.3963 30.0633 31.5647 29.8148 31.6915L30.8218 33.5215H29.8933L29.0105 31.7964H28.3893V33.5215H27.5981V29.1465ZM29.0498 31.1143C29.259 31.1143 29.4203 31.053 29.5336 30.9306C29.6513 30.8082 29.7102 30.6595 29.7102 30.4846C29.7102 30.2965 29.6492 30.1435 29.5271 30.0254C29.405 29.9074 29.2459 29.8483 29.0498 29.8483H28.3893V31.1143H29.0498Z" fill="black"/>
<path d="M32.7754 29.1465H33.5993V33.5215H32.7754V29.1465Z" fill="black"/>
<path d="M37.9589 33.6395C37.6407 33.6395 37.3443 33.5804 37.0696 33.4624C36.795 33.3399 36.5552 33.1738 36.3504 32.9639C36.1455 32.754 35.9842 32.5091 35.8665 32.2292C35.7488 31.9494 35.6899 31.6498 35.6899 31.3306C35.6899 31.0114 35.7488 30.7119 35.8665 30.432C35.9842 30.1521 36.1433 29.9094 36.3438 29.7039C36.5487 29.494 36.7885 29.33 37.0631 29.212C37.3421 29.0895 37.6407 29.0283 37.9589 29.0283C38.2771 29.0283 38.5736 29.0895 38.8482 29.212C39.1228 29.33 39.3626 29.494 39.5675 29.7039C39.7724 29.9094 39.9337 30.1521 40.0514 30.432C40.1691 30.7119 40.2279 31.0114 40.2279 31.3306C40.2279 31.6498 40.1691 31.9494 40.0514 32.2292C39.9337 32.5091 39.7724 32.754 39.5675 32.9639C39.3626 33.1738 39.1228 33.3399 38.8482 33.4624C38.5736 33.5804 38.2771 33.6395 37.9589 33.6395ZM37.9589 32.8589C38.1725 32.8589 38.3665 32.8174 38.5409 32.7343C38.7153 32.6512 38.8635 32.5397 38.9855 32.3998C39.1076 32.2555 39.2013 32.0893 39.2667 31.9013C39.3321 31.7132 39.3648 31.5165 39.3648 31.3109C39.3648 31.101 39.3321 30.9043 39.2667 30.7206C39.2013 30.5326 39.1076 30.3686 38.9855 30.2287C38.8635 30.0887 38.7153 29.9794 38.5409 29.9007C38.3665 29.8176 38.1725 29.7761 37.9589 29.7761C37.741 29.7761 37.5448 29.8176 37.3704 29.9007C37.2004 29.9794 37.0544 30.0887 36.9323 30.2287C36.8103 30.3686 36.7165 30.5326 36.6512 30.7206C36.5858 30.9043 36.5531 31.101 36.5531 31.3109C36.5531 31.5165 36.5858 31.7132 36.6512 31.9013C36.7165 32.0893 36.8103 32.2555 36.9323 32.3998C37.0544 32.5397 37.2004 32.6512 37.3704 32.7343C37.5448 32.8174 37.741 32.8589 37.9589 32.8589Z" fill="black"/>
<path d="M43.1296 29.8746H41.6519V29.1465H45.4313V29.8746H43.9535V33.5215H43.1296V29.8746Z" fill="black"/>
<path d="M48.6863 29.8746H47.2085V29.1465H50.988V29.8746H49.5102V33.5215H48.6863V29.8746Z" fill="black"/>
<path d="M13.9062 44.8579C13.0061 45.113 11.6688 45.215 10.4484 45.215L10.7128 45.5822C11.2417 45.5822 11.74 45.5312 12.1926 45.5006L12.1875 45.8832H10.3823V46.2555H11.7654C11.3891 46.7299 10.784 47.0513 10.1128 47.2604L10.3976 47.5818C10.6467 47.4951 10.8705 47.4032 11.023 47.3165V49.3569H11.4044V49.0916L13.3621 49.0865L13.357 49.3569H13.7435V47.1686H12.5739L12.579 46.2555H14.4045V45.8883L12.5739 45.8832V45.4547C13.0773 45.3935 13.6418 45.3221 14.196 45.1487L13.9062 44.8579ZM13.3621 47.9133L11.4095 47.9184L11.4044 47.541L13.3621 47.5359V47.9133ZM12.1926 47.1686L11.2874 47.1584C11.5824 46.9952 11.9892 46.6483 12.1926 46.3423V47.1686ZM11.4044 48.7142L11.4095 48.2857H13.357L13.3621 48.7193L11.4044 48.7142ZM12.6197 46.5718C13.2757 46.7401 13.9164 47.087 14.3384 47.5104L14.5977 47.2094C14.0791 46.7503 13.5299 46.4341 12.8994 46.2657L12.6197 46.5718Z" fill="black"/>
<path d="M17.7494 47.7552C17.968 47.643 18.1155 47.5155 18.2324 47.4288V48.7397C18.2324 48.9284 18.324 49.1579 18.6392 49.1579H20.1749C20.6275 49.1579 20.6631 48.7091 20.6834 48.3061H20.3122C20.2766 48.5917 20.2868 48.7856 20.0885 48.7856H18.7562C18.6342 48.7856 18.6189 48.6887 18.6189 48.6122V48.301H20.1647L20.1597 47.393C20.2715 47.5053 20.5004 47.6685 20.7546 47.7909L21.019 47.4849C20.6987 47.3981 20.2003 47.0054 19.9919 46.6585H20.7699L20.7648 46.2862H19.9919V45.7557H20.5715V45.3833H19.9969L19.9919 44.812H19.6054V45.3782L18.7613 45.3833L18.7664 44.812H18.3748V45.3833H17.7951V45.7557H18.3748V46.2862H17.6019V46.6585H18.3952C18.2477 46.9595 17.9426 47.2451 17.5561 47.4339L17.2053 47.3216C17.1087 47.7195 16.8392 48.7091 16.4476 49.1375L16.8137 49.3416C17.2053 48.7958 17.4341 48.1582 17.5307 47.49L17.7494 47.7552ZM18.6189 47.4696H19.7783L19.7732 47.9286H18.6189V47.4696ZM19.6105 45.7557L19.6054 46.2913L18.7613 46.2862L18.7664 45.7557H19.6105ZM19.5851 46.6534C19.6817 46.8167 19.7986 46.9901 19.8902 47.0972H18.5426C18.624 46.9952 18.7511 46.832 18.8071 46.6585L19.5851 46.6534ZM17.6782 45.6026C17.4748 45.2966 17.1849 45.1079 16.8748 44.9956L16.5798 45.2558C16.8392 45.3476 17.1087 45.4547 17.3934 45.8679L17.6782 45.6026ZM17.4697 46.735C17.2714 46.3882 16.9104 46.1535 16.6358 46.0668L16.4019 46.3474C16.7375 46.4647 16.9917 46.6993 17.1799 46.9901L17.4697 46.735Z" fill="black"/>
<path d="M27.0486 48.6681V48.3008H26.6418C26.6824 48.0407 26.7333 47.7346 26.774 47.4745H27.2571V47.1123L26.8096 47.1072C26.8401 46.7909 26.8858 46.388 26.896 45.9799H24.4654C24.5315 45.8881 24.6383 45.7453 24.7095 45.5973L27.1655 45.5922V45.2199H24.8671C24.8874 45.1281 24.9281 45.026 24.9383 44.873L24.6078 44.7251C24.5061 45.3576 24.1247 45.8728 23.6365 46.3166L23.9976 46.5206C24.14 46.3931 24.2417 46.2707 24.3383 46.1533C24.3281 46.4492 24.2874 46.8624 24.2518 47.1072L23.7942 47.1021V47.4694H24.2162C24.1654 47.8315 24.0637 48.2396 23.8908 48.663H26.1689C26.1536 48.7497 26.1333 48.8364 26.0773 48.9078C26.0265 48.9588 25.9655 48.9792 25.8841 48.9741C25.6604 48.969 25.4417 48.8976 25.1722 48.8517L25.2587 49.2547C25.7265 49.3363 26.0112 49.3873 26.2248 49.27C26.357 49.1934 26.5045 49.0353 26.5655 48.663L27.0486 48.6681ZM24.6586 47.1072L24.7349 46.3472H26.4892C26.474 46.5971 26.4384 46.8777 26.4079 47.1021L25.9044 47.1072L26.1282 46.8624C25.818 46.6022 25.5282 46.439 25.157 46.3676L24.8366 46.6379C25.2587 46.6889 25.5434 46.8522 25.8231 47.1021L24.6586 47.1072ZM26.3672 47.4694C26.3418 47.7346 26.2757 48.0356 26.2248 48.2906H25.7875L26.0214 48.056C25.7366 47.7703 25.4366 47.5612 25.0756 47.4694H26.3672ZM24.7196 47.7448C25.162 47.8009 25.4417 48.0049 25.7417 48.2906H24.4603C24.5366 48.0203 24.5976 47.6581 24.6281 47.4694H25.0197L24.7196 47.7448ZM24.0281 45.6279C23.8094 45.3117 23.5094 45.0618 23.1789 44.9342L22.8941 45.2097C23.2653 45.327 23.5501 45.5565 23.7382 45.8779L24.0281 45.6279ZM23.7535 46.7348C23.5298 46.4084 23.2552 46.138 22.9094 45.9952L22.6094 46.2554C22.9907 46.3829 23.2603 46.6532 23.4535 46.9848L23.7535 46.7348ZM23.0518 49.1883C23.4382 48.6579 23.6264 48.0509 23.7433 47.4183L23.4026 47.2908C23.3009 47.9182 23.1179 48.464 22.7263 48.969L23.0518 49.1883Z" fill="black"/>
<path d="M33.2919 45.6026L32.4275 45.6077C32.5953 45.4598 32.8495 45.1333 32.9512 44.9038L32.5851 44.71C32.4529 45.0721 32.2088 45.3884 31.9291 45.6077L31.4359 45.5975L31.5884 45.5057C31.4511 45.2353 31.1359 44.8885 30.8918 44.7355L30.5562 44.9752C30.8562 45.1384 31.0748 45.4139 31.1715 45.6026L30.4036 45.6077V45.9801L31.6342 45.975L31.6393 46.6126H30.607V46.9798L31.6342 46.9849V47.7042H30.2104V48.0765H31.6393L31.6342 49.3568H32.0207L32.0257 48.0765H33.4953V47.7042H32.0207L32.0257 46.9849L33.0885 46.9798V46.6126H32.0207V45.9801H33.297L33.2919 45.6026ZM30.3375 45.6434C30.0528 45.2711 29.6917 45.0313 29.4527 44.9497L29.2188 45.2404C29.5799 45.3578 29.8595 45.6128 30.0985 45.9189L30.3375 45.6434ZM30.0884 46.7503C29.8189 46.4289 29.529 46.1586 29.1578 46.0362L28.873 46.3065C29.2595 46.4391 29.5646 46.6789 29.8036 47.0053L30.0884 46.7503ZM29.3205 49.2242C29.8036 48.6988 30.0273 48.0918 30.1697 47.4287L29.8239 47.2604C29.6968 47.9337 29.4782 48.5305 28.9595 49.01L29.3205 49.2242Z" fill="black"/>
<path d="M39.6368 47.0307C38.8995 46.587 38.569 45.832 38.3808 45.072L36.7384 45.0669V45.4546H38.0554C38.2079 46.0106 38.6402 46.9338 39.3521 47.3266L39.6368 47.0307ZM36.5553 45.5209C36.3316 46.184 36.0163 46.5819 35.3604 47.0256L35.6604 47.3266C36.2858 46.8828 36.7536 46.2248 36.8808 45.7249L36.5553 45.5209ZM39.2707 49.0609C39.0826 48.4692 38.7775 47.9387 38.3249 47.5051L37.9486 47.6734C38.2029 47.9132 38.3452 48.0917 38.4927 48.3263C37.8927 48.4335 37.3384 48.4998 36.5146 48.6171C37.1248 47.9438 37.4554 47.2501 37.5469 46.5716L37.1554 46.439C37.0587 46.9797 36.7384 47.9999 35.9146 48.7191L36.1689 49.0915C36.6367 48.9639 38.1215 48.7701 38.6605 48.6732C38.7419 48.8466 38.8181 49.0201 38.8842 49.2394L39.2707 49.0609Z" fill="black"/>
<path d="M42.1174 49.1426H45.3871V49.3568H45.7735V44.9956H41.731L41.736 49.3823H42.1174L42.1174 49.1426ZM42.1174 45.368L45.3871 45.3629V48.7702L42.1174 48.7753V45.368ZM43.0683 48.7396C43.3836 48.6427 43.6683 48.5458 43.9938 48.4693L43.9887 48.1581C43.7599 48.1938 43.5666 48.2857 43.4344 48.3061V47.8827C43.5463 47.8011 43.6683 47.6838 43.765 47.5766H44.8226L44.8277 46.6942H42.6869V47.5766L43.2666 47.5715C42.9514 47.8674 42.509 47.9898 42.1683 48.0765L42.4022 48.403C42.6717 48.3214 42.9005 48.2142 43.0581 48.1275V48.3163C43.0581 48.403 42.9768 48.4081 42.8141 48.4489L43.0683 48.7396ZM43.0531 47.0257L44.4514 47.0308L44.4565 47.2502H43.0581L43.0531 47.0257ZM43.5565 46.2249H42.2496V46.5667L45.2243 46.5718V46.2249L43.9378 46.2198L43.9429 46.0005H44.904V45.6689L43.9378 45.6638L43.9429 45.4088L43.5565 45.4037L43.5514 45.6638L42.6005 45.6689V46.0005H43.5514L43.5565 46.2249ZM45.2803 48.4693C45.0769 48.2653 44.8735 48.1224 44.7464 48.051C44.8481 48.0102 45.0108 47.8827 45.1735 47.7144L44.9294 47.4746C44.8531 47.6378 44.5735 47.7858 44.3904 47.8674C44.248 47.8164 44.0599 47.745 43.8616 47.6991L43.6785 47.9694C44.1921 48.1224 44.6497 48.3214 45.0159 48.709L45.2803 48.4693Z" fill="black"/>
<path d="M51.0964 48.663C51.1269 48.7038 51.1472 48.7854 51.2083 48.9078C51.3252 48.8364 51.4167 48.7905 51.5388 48.7242C51.4117 48.4538 51.2896 48.2294 51.015 48.0457H51.61V48.7854C51.61 48.8466 51.5642 48.9282 51.5032 48.9333C51.315 48.9537 51.132 48.9333 50.8727 48.9129C50.9235 49.0659 50.9591 49.1526 50.9794 49.2853C51.2388 49.2751 51.4778 49.3006 51.6913 49.2648C51.8439 49.2393 51.9863 49.0812 51.9863 48.9078V47.6938L50.2625 47.6887L50.2675 47.4591H51.6659V45.9391H48.4725V47.4591H49.876L49.8709 47.6938H48.6302L48.6251 47.4744H48.2234L48.2285 47.6938H47.9437V48.0457H48.2285V49.372H48.6302V48.0457H49.8709V48.4079C49.5251 48.4334 49.1387 48.4487 48.681 48.4487C48.7522 48.5915 48.7929 48.6783 48.8387 48.8007L51.0964 48.663ZM49.8709 46.2962V46.5155H48.859V46.2962H49.8709ZM51.2845 46.8725V47.1021H50.2675L50.2625 46.8725H51.2845ZM51.2744 46.2962L51.2794 46.5155H50.2675V46.2962H51.2744ZM49.8709 46.8776V47.1021H48.859V46.8776H49.8709ZM50.6286 48.1988C50.7252 48.26 50.7862 48.3008 50.8472 48.3416C50.6489 48.3518 50.4557 48.3773 50.2625 48.3773L50.2675 48.0457L50.9286 48.0559L50.6286 48.1988ZM50.7964 45.5667V45.9187H51.1777L51.1727 45.5667H52.2558V45.2097H51.1727V44.771L50.7913 44.7761V45.2097L50.1252 45.2148V45.5667H50.7964ZM47.842 45.2199L47.8369 45.5769H48.9505V45.9187L49.3421 45.9238L49.3472 45.5718L49.998 45.5769L49.9929 45.2199H49.3472L49.3421 44.7863L48.9505 44.7914V45.2199H47.842Z" fill="black"/>
<path d="M54.7885 46.4799L57.6005 46.4748V45.6433H54.7885V46.4799ZM57.2191 45.9545V46.1636H55.1698V45.9545H57.2191ZM54.5037 47.0052L57.8852 47.0001V47.3623H58.2615L58.2564 46.6482H54.1325L54.1376 47.3572H54.5037L54.5037 47.0052ZM55.8919 49.3159C56.1055 49.3465 56.3191 49.3873 56.5275 49.3312C56.7818 49.2955 56.8428 49.1629 56.8937 48.9895C56.9191 48.765 56.8835 48.4947 56.8326 48.3213C56.914 48.3009 56.9954 48.2703 57.0716 48.2448C57.2445 48.714 57.7378 49.0099 58.2666 49.1425L58.4446 48.7905C57.7327 48.6987 57.4784 48.2703 57.4022 48.0713C57.4988 48.0101 57.6259 47.9336 57.7734 47.801L57.514 47.5306C57.2547 47.7653 57.0055 47.9438 56.7106 47.9897C56.6394 47.8469 56.497 47.6684 56.3953 47.6071C56.4462 47.5816 56.5733 47.5357 56.6801 47.4745H57.7123V47.1379H54.6969V47.4694L55.8258 47.4796C55.3377 47.6122 54.8241 47.6531 54.1884 47.6735L54.402 48.0152C54.9664 47.9744 55.4902 47.8877 55.9784 47.7602C56.0445 47.7908 56.1106 47.8214 56.1309 47.8469C55.6072 48.1019 54.941 48.1988 54.1681 48.209L54.3868 48.561C55.1088 48.5151 55.8106 48.3825 56.3547 48.1172C56.3801 48.1631 56.4004 48.209 56.436 48.2652C55.775 48.6324 54.9614 48.7293 54.0664 48.8212L54.2749 49.1527C55.0376 49.0609 55.9326 48.8977 56.5174 48.5967C56.5275 48.7038 56.5987 48.9232 56.4818 48.9895C56.3343 49.0762 56.0038 48.9742 55.6936 48.913L55.8919 49.3159ZM56.4665 45.1536C56.3547 44.9292 56.2326 44.8119 56.0089 44.6895L55.658 44.919C55.7699 44.9649 55.9479 45.0669 56.0496 45.1536H54.1834V45.5209H58.1954V45.1536H56.4665Z" fill="black"/>
<path d="M64.4226 49.3415V45.9087H63.6141L63.6191 45.3782H64.7683L64.7734 45.0058H61.3563V45.3782H62.4699V45.9087H61.6462V49.3415H62.0275L62.0326 49.0049H64.0412L64.0361 49.3364L64.4226 49.3415ZM62.3377 47.8164C62.7394 47.3522 62.8767 46.8268 62.8564 46.281H63.2276L63.2327 46.99C63.2327 47.0768 63.3242 47.444 63.7005 47.4491L64.0361 47.4542L64.0412 47.8827L62.0275 47.8878V47.5868L62.3377 47.8164ZM62.8564 45.9087V45.3782H63.2327V45.9087H62.8564ZM63.731 47.0564C63.6598 47.0564 63.6141 47.0206 63.6141 46.9543V46.281H64.0412L64.0361 47.0615L63.731 47.0564ZM62.0326 46.281H62.4699C62.4954 46.7248 62.3733 47.1584 62.0326 47.5358V46.281ZM62.0326 48.6325L62.0275 48.2551H64.0412V48.6325H62.0326ZM61.5394 45.6281C61.3055 45.3476 61.0258 45.1078 60.6902 44.9956L60.4359 45.271C60.7868 45.3833 61.0461 45.6179 61.2597 45.8934L61.5394 45.6281ZM61.3716 46.7503C61.2394 46.5922 61.1275 46.4442 61.0004 46.3422C60.8427 46.2147 60.6902 46.0872 60.4715 46.0311L60.2173 46.2963C60.5834 46.4289 60.8631 46.6891 61.0766 47.0104L61.3716 46.7503ZM60.5529 49.2446C60.9902 48.6784 61.275 48.0816 61.3716 47.3828L61.036 47.24C60.9495 47.9337 60.6546 48.4948 60.2224 49.0508L60.5529 49.2446Z" fill="black"/>
<path d="M70.0349 49.01V49.3467L70.4265 49.3518V47.4441H69.1959L69.1908 46.7351H70.818V46.3627H69.1908V45.7914H68.8145L68.8196 47.4441H67.9247V49.3263H68.3111V49.01H70.0349ZM70.0349 47.8215V48.6326H68.3111V47.8266L70.0349 47.8215ZM69.3027 45.2915L69.4095 45.2303C69.1654 44.9906 68.9518 44.7661 68.6264 44.6743L68.3518 44.9345C68.6518 45.0314 68.8501 45.1844 68.962 45.3017H67.1517L67.1416 47.4645C67.1365 48.0664 66.9585 48.6887 66.5161 49.0151C66.6229 49.1223 66.7144 49.1937 66.8263 49.2804C67.3501 48.7703 67.528 48.2602 67.5331 47.6379L67.5535 45.6741H71.0062V45.3017L69.3027 45.2915Z" fill="black"/>
<path d="M25.0737 24.9387H29.9518L21.7905 6.30087L17.6928 8.20368L20.5433 14.6928L19.2199 17.7096L14.1127 6L9.97258 7.81336L13.2982 15.2945L13.2812 15.327C11.2282 20.0515 8.71697 21.3445 8.47094 21.4339C7.88556 21.6616 7.25777 21.7917 6.59603 21.7917C6.39242 21.7917 6.1973 21.7836 6.00217 21.7592L4 25.8738C4.66173 26.2397 5.40831 26.4512 6.1973 26.4512C7.19838 26.4512 8.11463 26.1178 8.87816 25.5648L8.86967 25.5811C8.86967 25.5811 10.7615 24.6622 12.7892 19.6287C12.7892 19.6206 13.5357 18.0186 13.9345 16.994L13.9769 16.8802L17.5401 24.9468H22.4097L19.8986 19.2709L21.2305 16.254L25.0737 24.9387Z" fill="#A1072D"/>
</svg>
